<svg width="12" height="18" viewBox="0 0 12 18" fill="none" xmlns="http://www.w3.org/2000/svg">
<path d="M4.51685 0V2.24719H2.83146C1.30337 2.24719 0.0224719 3.52809 0.0224719 5.05618V6.17978C0.0224719 7.70786 1.01124 8.96629 2.47191 9.34831L8.22472 10.8315C8.53933 10.9213 8.98876 11.4831 8.98876 11.8202V12.9438C8.98876 13.2584 8.74157 13.5056 8.42697 13.5056H2.80899C2.53933 13.5056 2.33708 13.4157 2.24719 13.3708V11.2584H0V13.5056C0 14.2697 0.449438 14.9213 0.988764 15.2584C1.50562 15.618 2.1573 15.7528 2.80899 15.7528H4.49438V18H6.74157V15.7528H8.42697C9.97753 15.7528 11.236 14.4944 11.236 12.9438V11.8202C11.236 10.2921 10.2472 9.03371 8.78652 8.65168L3.03371 7.16854C2.7191 7.07865 2.26966 6.51685 2.26966 6.17978V5.05618C2.26966 4.74157 2.51685 4.49438 2.83146 4.49438H8.44944C8.69663 4.49438 8.92135 4.58427 9.01124 4.62921V6.74157H11.2584V4.49438C11.2584 3.73034 10.809 3.07865 10.2697 2.74157C9.75281 2.38202 9.10112 2.24719 8.44944 2.24719H6.76404V0L4.51685 0Z" fill="#9F353A"/>
<path d="M4.51685 0V2.24719H2.83146C1.30337 2.24719 0.0224719 3.52809 0.0224719 5.05618V6.17978C0.0224719 7.70786 1.01124 8.96629 2.47191 9.34831L8.22472 10.8315C8.53933 10.9213 8.98876 11.4831 8.98876 11.8202V12.9438C8.98876 13.2584 8.74157 13.5056 8.42697 13.5056H2.80899C2.53933 13.5056 2.33708 13.4157 2.24719 13.3708V11.2584H0V13.5056C0 14.2697 0.449438 14.9213 0.988764 15.2584C1.50562 15.618 2.1573 15.7528 2.80899 15.7528H4.49438V18H6.74157V15.7528H8.42697C9.97753 15.7528 11.236 14.4944 11.236 12.9438V11.8202C11.236 10.2921 10.2472 9.03371 8.78652 8.65168L3.03371 7.16854C2.7191 7.07865 2.26966 6.51685 2.26966 6.17978V5.05618C2.26966 4.74157 2.51685 4.49438 2.83146 4.49438H8.44944C8.69663 4.49438 8.92135 4.58427 9.01124 4.62921V6.74157H11.2584V4.49438C11.2584 3.73034 10.809 3.07865 10.2697 2.74157C9.75281 2.38202 9.10112 2.24719 8.44944 2.24719H6.76404V0L4.51685 0Z" fill="#9F353A"/>
</svg>
