<svg width="15" height="18" viewBox="0 0 15 18" fill="none" xmlns="http://www.w3.org/2000/svg">
<path fill-rule="evenodd" clip-rule="evenodd" d="M15 7.36364C15 13.0909 7.5 18 7.5 18C7.5 18 0 13.0909 0 7.36364C0 5.41068 0.790176 3.53771 2.1967 2.15676C3.60322 0.77581 5.51088 0 7.5 0C9.48912 0 11.3968 0.77581 12.8033 2.15676C14.2098 3.53771 15 5.41068 15 7.36364Z" fill="#9F353A"/>
<path d="M7.52083 9.85918C8.91305 9.85918 10.0417 8.75108 10.0417 7.38418C10.0417 6.01727 8.91305 4.90918 7.52083 4.90918C6.12862 4.90918 5 6.01727 5 7.38418C5 8.75108 6.12862 9.85918 7.52083 9.85918Z" fill="white"/>
</svg>
