<svg width="30" height="30" viewBox="0 0 30 30" fill="none" xmlns="http://www.w3.org/2000/svg">
<g clip-path="url(#clip0_1992_6741)">
<path d="M14.0625 29.0625L13.6819 27.9206C13.313 26.8141 13.125 25.6553 13.125 24.4889C13.125 23.4804 13.2656 22.4769 13.5427 21.5072L14.0625 19.6875L13.6819 18.5456C13.313 17.4391 13.125 16.2803 13.125 15.1139C13.125 14.1054 13.2656 13.1019 13.5427 12.1322L14.0625 10.3125L13.6819 9.17062C13.313 8.06409 13.125 6.90531 13.125 5.73891C13.125 4.73042 13.2656 3.72686 13.5427 2.75719L14.0625 0.9375H6.5625L7.08234 2.75719C7.35941 3.72686 7.49998 4.73042 7.5 5.73891C7.50005 6.90531 7.31201 8.06409 6.94313 9.17062L6.5625 10.3125L7.08234 12.1322C7.35941 13.1019 7.49998 14.1054 7.5 15.1139C7.50005 16.2803 7.31201 17.4391 6.94313 18.5456L6.5625 19.6875L7.08234 21.5072C7.35941 22.4769 7.49998 23.4804 7.5 24.4889C7.50005 25.6553 7.31201 26.8141 6.94313 27.9206L6.5625 29.0625H14.0625Z" fill="#9F353A"/>
<path d="M25.7812 29.0625L25.4006 27.9206C25.0317 26.8141 24.8437 25.6553 24.8438 24.4889C24.8438 23.4804 24.9843 22.4769 25.2614 21.5072L25.7812 19.6875L25.4006 18.5456C25.0317 17.4391 24.8437 16.2803 24.8438 15.1139C24.8438 14.1054 24.9843 13.1019 25.2614 12.1322L25.7812 10.3125H18.2812L18.8011 12.1322C19.0782 13.1019 19.2187 14.1054 19.2188 15.1139C19.2188 16.2803 19.0308 17.4391 18.6619 18.5456L18.2812 19.6875L18.8011 21.5072C19.0782 22.4769 19.2187 23.4804 19.2188 24.4889C19.2188 25.6553 19.0308 26.8141 18.6619 27.9206L18.2812 29.0625H25.7812Z" fill="#9F353A"/>
<path d="M15.7031 6.32812C16.2233 5.80795 16.8408 5.39534 17.5204 5.11384C18.2 4.83233 18.9284 4.68747 19.6641 4.6875H19.6875V4.71094C19.6875 5.44655 19.5427 6.17497 19.2612 6.85459C18.9797 7.53421 18.567 8.15173 18.0469 8.67188C17.5267 9.19205 16.9092 9.60466 16.2296 9.88616C15.55 10.1677 14.8216 10.3125 14.0859 10.3125H14.0625V10.2891C14.0625 9.55345 14.2073 8.82503 14.4888 8.14541C14.7703 7.46579 15.183 6.84827 15.7031 6.32812ZM4.92188 15.7031C4.40173 15.183 3.78421 14.7703 3.10459 14.4888C2.42497 14.2073 1.69655 14.0625 0.960937 14.0625H0.9375V14.0859C0.937465 14.8216 1.08233 15.55 1.36384 16.2296C1.64534 16.9092 2.05795 17.5267 2.57812 18.0469C3.09827 18.567 3.71579 18.9797 4.39541 19.2612C5.07503 19.5427 5.80345 19.6875 6.53906 19.6875H6.5625V19.6641C6.56253 18.9284 6.41767 18.2 6.13616 17.5204C5.85466 16.8408 5.44205 16.2233 4.92188 15.7031ZM25.7812 10.3125V10.2319C25.7812 9.81156 25.864 9.39536 26.0249 9.00704C26.1857 8.61873 26.4215 8.26591 26.7188 7.96875C27.0159 7.6715 27.3687 7.43571 27.757 7.27485C28.1454 7.11399 28.5616 7.03121 28.9819 7.03125H29.0625V7.11187C29.0625 7.53219 28.9798 7.94839 28.8189 8.33671C28.658 8.72502 28.4223 9.07784 28.125 9.375C27.8278 9.67225 27.475 9.90804 27.0867 10.0689C26.6984 10.2298 26.2822 10.3125 25.8619 10.3125H25.7812Z" fill="#9F353A"/>
<path d="M25.7812 10.3125V10.2319C25.7813 9.81156 25.6985 9.39536 25.5376 9.00704C25.3768 8.61873 25.141 8.26591 24.8438 7.96875C24.5466 7.6715 24.1938 7.43571 23.8055 7.27485C23.4171 7.11399 23.0009 7.03121 22.5806 7.03125H22.5V7.11187C22.5 7.53219 22.5827 7.94839 22.7436 8.33671C22.9045 8.72502 23.1402 9.07784 23.4375 9.375C23.7347 9.67225 24.0875 9.90804 24.4758 10.0689C24.8641 10.2298 25.2803 10.3125 25.7006 10.3125H25.7812ZM18.2812 19.6875V19.6069C18.2813 19.1866 18.1985 18.7704 18.0376 18.382C17.8768 17.9937 17.641 17.6409 17.3438 17.3438C17.0466 17.0465 16.6938 16.8107 16.3055 16.6499C15.9171 16.489 15.5009 16.4062 15.0806 16.4062H15V16.4869C15 16.9072 15.0827 17.3234 15.2436 17.7117C15.4045 18.1 15.6402 18.4528 15.9375 18.75C16.2347 19.0473 16.5875 19.283 16.9758 19.4439C17.3641 19.6048 17.7803 19.6875 18.2006 19.6875H18.2812Z" fill="#9F353A"/>
<path d="M14.5134 19.8164C14.5394 19.7255 14.5371 19.6289 14.5069 19.5394L14.1267 18.3975C13.4648 16.4122 13.4184 14.2732 13.9936 12.2611L14.4211 10.7648C15.9746 10.6822 17.4367 10.0049 18.5044 8.87348C19.5722 7.74205 20.1636 6.24318 20.1563 4.6875C20.1509 4.56083 20.0966 4.44118 20.0048 4.35374C19.913 4.2663 19.7909 4.21791 19.6641 4.21875C18.3981 4.21724 17.1636 4.61269 16.1341 5.34945C15.1047 6.0862 14.3321 7.12719 13.9252 8.32594C13.4616 6.5399 13.4852 4.66225 13.9936 2.88844L14.5134 1.06875C14.5338 0.998815 14.5377 0.925086 14.5246 0.853418C14.5115 0.781749 14.4819 0.714112 14.4382 0.655875C14.3944 0.597639 14.3377 0.550405 14.2725 0.517923C14.2072 0.485441 14.1354 0.468605 14.0625 0.468751H6.56251C6.48992 0.468711 6.41832 0.485528 6.35334 0.517879C6.28836 0.550229 6.23178 0.597228 6.18806 0.655172C6.14434 0.713116 6.11468 0.780422 6.1014 0.851785C6.08813 0.923148 6.09161 0.996619 6.11157 1.06641L6.63142 2.88563C6.89667 3.81351 7.03124 4.77385 7.03126 5.73891C7.03143 6.85514 6.85146 7.96408 6.49829 9.02297L6.11814 10.1644C6.08787 10.2539 6.08558 10.3505 6.11157 10.4414L6.63142 12.2606C6.89667 13.1885 7.03124 14.1489 7.03126 15.1139C7.031 15.9858 6.92075 16.8543 6.70314 17.6986C6.40541 16.8223 5.91015 16.0261 5.25564 15.3717C4.68967 14.8039 4.01645 14.3543 3.27513 14.0491C2.53381 13.7438 1.7392 13.5891 0.937511 13.5938C0.810841 13.5991 0.691186 13.6534 0.60375 13.7452C0.516314 13.837 0.46792 13.9592 0.468761 14.0859C0.467191 15.6375 1.0613 17.1305 2.12848 18.2569C3.19566 19.3832 4.65448 20.0569 6.20392 20.1389L6.63142 21.6356C6.89667 22.5635 7.03124 23.5239 7.03126 24.4889C7.03143 25.6051 6.85146 26.7141 6.49829 27.773L6.11814 28.9144C6.09468 28.9848 6.08828 29.0598 6.09948 29.1332C6.11067 29.2066 6.13914 29.2763 6.18253 29.3365C6.22592 29.3967 6.28299 29.4458 6.34905 29.4796C6.41512 29.5135 6.48828 29.5312 6.56251 29.5313H14.0625C14.1367 29.5312 14.2099 29.5135 14.276 29.4796C14.342 29.4458 14.3991 29.3967 14.4425 29.3365C14.4859 29.2763 14.5144 29.2066 14.5255 29.1332C14.5367 29.0598 14.5303 28.9848 14.5069 28.9144L14.1267 27.7725C13.4648 25.7872 13.4184 23.6482 13.9936 21.6361L14.5134 19.8164ZM7.53329 12.0033L7.18407 10.7813H13.4409L13.0917 12.0033C12.465 14.1972 12.5158 16.5292 13.2375 18.6938L13.4124 19.2188H7.21267L7.38751 18.6942C7.77284 17.5399 7.96912 16.3309 7.96876 15.1139C7.96864 14.0618 7.82208 13.0149 7.53329 12.0033ZM16.0345 6.65953C16.8815 5.8086 18.0017 5.28402 19.1977 5.17828C19.0885 6.37329 18.564 7.49225 17.7153 8.34059C16.8666 9.18894 15.7474 9.71302 14.5524 9.82172C14.6584 8.62593 15.1833 7.50601 16.0345 6.65953ZM13.4409 1.40625L13.0917 2.62828C12.465 4.82217 12.5158 7.15424 13.2375 9.31875L13.4124 9.84375H7.21267L7.38751 9.31922C7.77284 8.16488 7.96912 6.95586 7.96876 5.73891C7.96864 4.68685 7.82208 3.63993 7.53329 2.62828L7.18407 1.40625H13.4409ZM2.90954 17.7155C2.05865 16.8683 1.53423 15.7479 1.42876 14.5519C2.6244 14.6583 3.7441 15.1834 4.59048 16.0345C5.44137 16.8817 5.96579 18.0021 6.07126 19.1981C4.87562 19.0917 3.75593 18.5667 2.90954 17.7155ZM7.21314 28.5938L7.38751 28.0692C7.77284 26.9149 7.96912 25.7059 7.96876 24.4889C7.96864 23.4369 7.82208 22.3899 7.53329 21.3783L7.18407 20.1563H13.4409L13.0917 21.3783C12.465 23.5722 12.5158 25.9042 13.2375 28.0688L13.4119 28.5938H7.21314Z" fill="#F1EEE1"/>
<path d="M29.0625 6.56249H28.9819C28.4998 6.56107 28.0222 6.65535 27.5769 6.83986C27.1315 7.02436 26.7272 7.29542 26.3873 7.63733C26.1496 7.87603 25.9456 8.1462 25.7812 8.4403C25.6169 8.1462 25.4129 7.87603 25.1752 7.63733C24.8353 7.29542 24.431 7.02436 23.9856 6.83986C23.5403 6.65535 23.0627 6.56107 22.5806 6.56249H22.5C22.3757 6.56249 22.2565 6.61187 22.1685 6.69978C22.0806 6.78769 22.0312 6.90691 22.0312 7.03124V7.11139C22.0299 7.59352 22.1242 8.07113 22.3087 8.51657C22.4932 8.962 22.7642 9.36641 23.1061 9.70639C23.153 9.75327 23.2069 9.80014 23.2575 9.84373H18.2813C18.2087 9.84369 18.1371 9.86051 18.0721 9.89286C18.0071 9.92521 17.9505 9.97221 17.9068 10.0302C17.8631 10.0881 17.8334 10.1554 17.8201 10.2268C17.8069 10.2981 17.8104 10.3716 17.8303 10.4414L18.3502 12.2606C18.8839 14.1166 18.8839 16.0854 18.3502 17.9414C18.0434 17.338 17.5755 16.8314 16.9984 16.4777C16.4213 16.124 15.7575 15.937 15.0806 15.9375H15C14.8757 15.9375 14.7565 15.9869 14.6685 16.0748C14.5806 16.1627 14.5313 16.2819 14.5313 16.4062V16.4864C14.5306 17.4115 14.88 18.3027 15.5092 18.9809C16.1385 19.6591 17.001 20.0741 17.9236 20.1426L18.3502 21.6356C18.9254 23.648 18.879 25.7874 18.217 27.773L17.8369 28.9144C17.8134 28.9848 17.807 29.0598 17.8182 29.1332C17.8294 29.2066 17.8579 29.2762 17.9013 29.3365C17.9447 29.3967 18.0017 29.4458 18.0678 29.4796C18.1339 29.5135 18.207 29.5312 18.2813 29.5312H25.7812C25.8555 29.5312 25.9286 29.5135 25.9947 29.4796C26.0608 29.4458 26.1178 29.3967 26.1612 29.3365C26.2046 29.2762 26.2331 29.2066 26.2443 29.1332C26.2555 29.0598 26.2491 28.9848 26.2256 28.9144L25.8455 27.7725C25.1835 25.7872 25.1371 23.6482 25.7123 21.6361L26.2322 19.8164C26.2582 19.7255 26.2559 19.6289 26.2256 19.5394L25.8455 18.3975C25.1835 16.4122 25.1371 14.2732 25.7123 12.2611L26.1389 10.7676C27.0615 10.6991 27.924 10.2841 28.5533 9.60588C29.1825 8.92768 29.5319 8.03654 29.5312 7.11139V7.03124C29.5312 6.90691 29.4819 6.78769 29.394 6.69978C29.306 6.61187 29.1868 6.56249 29.0625 6.56249ZM23.0006 7.53186C23.5732 7.62135 24.1025 7.89038 24.5123 8.30016C24.9221 8.70994 25.1911 9.23929 25.2806 9.81186C24.7081 9.72237 24.1787 9.45334 23.7689 9.04356C23.3591 8.63378 23.0901 8.10443 23.0006 7.53186ZM25.1597 10.7812L24.8105 12.0033C24.1837 14.1972 24.2345 16.5292 24.9563 18.6937L25.1311 19.2187H18.9314L19.1062 18.6942C19.828 16.5295 19.8788 14.1973 19.252 12.0033L18.9028 10.7812H25.1597ZM16.2689 18.4186C15.8579 18.0097 15.5886 17.4799 15.5006 16.9069C16.0732 16.9963 16.6025 17.2654 17.0123 17.6752C17.4221 18.0849 17.6911 18.6143 17.7806 19.1869C17.2075 19.0991 16.6776 18.8298 16.2689 18.4186ZM18.9319 28.5937L19.1062 28.0692C19.828 25.9045 19.8788 23.5723 19.252 21.3783L18.9028 20.1562H25.1597L24.8105 21.3783C24.1837 23.5722 24.2345 25.9042 24.9563 28.0687L25.1306 28.5937H18.9319ZM27.7936 9.04358C27.3849 9.4548 26.855 9.72409 26.2819 9.81186C26.3714 9.23929 26.6404 8.70994 27.0502 8.30016C27.46 7.89038 27.9893 7.62135 28.5619 7.53186C28.4739 8.10491 28.2046 8.6347 27.7936 9.04358Z" fill="#F1EEE1"/>
</g>
<defs>
<clipPath id="clip0_1992_6741">
<rect width="30" height="30" fill="white"/>
</clipPath>
</defs>
</svg>
