<svg width="32" height="30" viewBox="0 0 32 30" fill="none" xmlns="http://www.w3.org/2000/svg">
<path d="M3.76574 14.5181C3.76574 14.5181 1.03541 16.4217 1.05085 20.5877C1.06685 24.9077 4.0323 29.874 15.3887 29.874H14.734C26.0903 29.874 29.0558 24.9076 29.0717 20.5877C29.0799 18.383 28.3192 16.812 27.601 15.8213L28.2419 16.8812C28.2419 16.8812 29.8318 15.6081 30.0214 11.4611C29.737 8.64107 21.9644 8.92546 15.1633 8.92546C8.36213 8.92546 5.2714 10.7426 3.86839 14.3285" fill="#9F353A"/>
<path d="M15.3878 30H14.733C14.7192 30 14.706 29.9978 14.6936 29.9937C9.86693 29.9051 6.23344 28.8816 3.88606 26.9481C1.44983 24.9413 0.930509 22.3819 0.923893 20.5881C0.915826 18.4037 1.66642 16.8436 2.29747 15.9195C2.98328 14.9153 3.66405 14.4347 3.69273 14.4146C3.71296 14.4005 3.73583 14.3932 3.75871 14.3921C3.74907 14.3757 3.74328 14.3573 3.74178 14.3383C3.74029 14.3193 3.74312 14.3003 3.75007 14.2825C5.25384 10.4393 8.6669 8.79943 15.1624 8.79943C15.7312 8.79943 16.3068 8.79748 16.8842 8.79546C20.0258 8.78462 23.2747 8.77334 25.7435 9.08906C28.6218 9.45708 30.0207 10.2068 30.1459 11.4485C30.1466 11.4546 30.1468 11.4607 30.1465 11.4669C30.0475 13.6313 29.562 15.0086 29.1723 15.7829C28.8469 16.4292 28.5342 16.7759 28.3948 16.9115C28.8405 17.8384 29.2026 19.0626 29.1969 20.5881C29.1903 22.3819 28.671 24.9413 26.2347 26.9481C23.8874 28.8816 20.2539 29.9051 15.4273 29.9937C15.4148 29.9978 15.4016 30 15.3878 30ZM3.87352 14.4544C3.88953 14.4817 3.89466 14.5141 3.88789 14.545C3.88111 14.576 3.86294 14.6032 3.83697 14.6214C3.83029 14.626 3.1591 15.1016 2.49913 16.0713C1.8912 16.9646 1.16815 18.4731 1.17596 20.5872C1.18239 22.3269 1.68558 24.809 4.04632 26.7536C6.40674 28.6978 10.1115 29.7042 15.0604 29.7466C20.0093 29.7042 23.714 28.6978 26.0744 26.7536C28.4352 24.8091 28.9384 22.327 28.9448 20.5872C28.9505 19.0556 28.5751 17.8386 28.1233 16.9302L27.4922 15.8865C27.4753 15.8587 27.4698 15.8254 27.4769 15.7936C27.484 15.7618 27.5031 15.734 27.5303 15.716C27.5574 15.698 27.5905 15.6912 27.6225 15.697C27.6546 15.7029 27.6831 15.7209 27.7022 15.7473C27.8898 16.0061 28.0872 16.3144 28.2748 16.6724C28.634 16.2875 29.738 14.8395 29.8942 11.4647C29.7776 10.3793 28.4093 9.684 25.7115 9.33911C23.2591 9.02547 20.0188 9.03675 16.885 9.04753C16.3073 9.04955 15.7315 9.0515 15.1624 9.0515C11.8393 9.0515 9.3483 9.49098 7.54722 10.3949C5.84475 11.2493 4.71278 12.5138 3.98481 14.3743C3.97598 14.397 3.96078 14.4166 3.94103 14.4308C3.92128 14.445 3.89783 14.4532 3.87352 14.4544Z" fill="#F1EEE1"/>
<path d="M15.0831 15.8214C25.2848 15.8214 26.8133 12.6222 26.5944 10.0657C26.3794 7.55389 25.4625 6.54385 25.0359 5.29978C24.6094 4.05563 25.3111 0.765837 24.1608 0.216708C23.0106 -0.332484 19.4552 1.78066 18.9577 2.02958C18.46 2.27837 17.2514 1.78072 15.0831 1.78072H15.1632C12.9949 1.78072 11.7863 2.27837 11.2887 2.02958C10.7911 1.78072 7.23576 -0.332421 6.08551 0.216708C4.93526 0.765837 5.63696 4.05563 5.2104 5.29978C4.78377 6.54385 3.86694 7.55389 3.65193 10.0657C3.43307 12.6222 4.96154 15.8214 15.1633 15.8214H15.0831Z" fill="#9F353A"/>
<path d="M15.1633 15.9474H15.0819L15.0776 15.9474C9.72399 15.9382 6.18389 15.0333 4.55522 13.2579C3.76366 12.395 3.41707 11.3173 3.52514 10.0549C3.6784 8.26473 4.17762 7.23957 4.61804 6.33509C4.79695 5.96764 4.96596 5.62054 5.08998 5.25895C5.24462 4.80787 5.24443 4.05948 5.24418 3.26711C5.2438 1.89618 5.24336 0.47855 6.02994 0.103033C6.17311 0.0346594 6.35296 0 6.56445 0C7.83745 0 10.0766 1.22587 11.0327 1.74935C11.1732 1.82636 11.2843 1.8871 11.3438 1.91685C11.4197 1.95478 11.5275 1.97325 11.6733 1.97325C11.9028 1.97325 12.2038 1.92901 12.585 1.87305C13.1942 1.78357 14.0252 1.66157 15.0735 1.65495C15.0763 1.65482 15.079 1.6547 15.0819 1.6547H15.162C15.1648 1.6547 15.1676 1.65482 15.1704 1.65501C16.2191 1.66157 17.0498 1.78357 17.6588 1.87305C18.0399 1.92901 18.341 1.97325 18.5705 1.97325C18.7164 1.97325 18.8242 1.95478 18.9001 1.91685C18.9596 1.88704 19.0706 1.82629 19.2112 1.74935C20.1673 1.22587 22.4066 0 23.6794 0C23.8909 0 24.0707 0.0346594 24.214 0.103033C25.0005 0.47855 25.0002 1.89618 24.9997 3.26711C24.9995 4.05948 24.9993 4.80787 25.154 5.25895C25.278 5.62054 25.4469 5.96764 25.6259 6.33509C26.0663 7.23963 26.5656 8.26473 26.7188 10.0549C26.8269 11.3173 26.4803 12.395 25.6887 13.2579C24.0602 15.0332 20.5207 15.938 15.1676 15.9474L15.1633 15.9474ZM6.56445 0.252068C6.39083 0.252068 6.24753 0.278472 6.13858 0.330461C5.49549 0.637479 5.49587 2.0345 5.49625 3.26705C5.49644 4.08104 5.49669 4.84984 5.32837 5.34068C5.19931 5.71702 5.02702 6.07086 4.84459 6.44543C4.41374 7.33019 3.92549 8.33297 3.7762 10.0765C3.67443 11.2657 3.99897 12.2787 4.74086 13.0875C6.32429 14.8137 9.81706 15.691 15.122 15.6954C20.4268 15.6911 23.9195 14.8137 25.503 13.0875C26.2449 12.2787 26.5694 11.2657 26.4676 10.0765C26.3183 8.33297 25.8301 7.33019 25.3992 6.44543C25.2168 6.07086 25.0445 5.71695 24.9155 5.34068C24.7472 4.84984 24.7474 4.08104 24.7476 3.26705C24.748 2.0345 24.7483 0.637479 24.1053 0.330461C23.9963 0.278472 23.853 0.252068 23.6794 0.252068C22.471 0.252068 20.1906 1.50049 19.3322 1.97047C19.1838 2.05177 19.0765 2.1105 19.0127 2.14238C18.8996 2.19891 18.759 2.22531 18.5705 2.22531C18.3226 2.22531 18.0135 2.17988 17.6221 2.12241C17.0112 2.03267 16.1745 1.90979 15.1215 1.90683C14.0692 1.90979 13.2324 2.03267 12.6215 2.12241C12.2302 2.17988 11.9211 2.22531 11.6732 2.22531C11.4847 2.22531 11.3442 2.19897 11.231 2.14238C11.1673 2.1105 11.06 2.05177 10.9115 1.97047C10.0532 1.50043 7.77298 0.252068 6.56445 0.252068Z" fill="#F1EEE1"/>
<path d="M15.1632 15.8214C24.8318 15.8214 26.1619 12.5242 26.1619 12.5242C26.1619 12.5242 26.805 13.3332 26.4582 14.3285C26.1114 15.3238 22.2369 17.7128 15.1632 17.7128C8.08958 17.7128 4.21505 15.3238 3.86826 14.3285C3.52148 13.3332 4.16463 12.5242 4.16463 12.5242C4.16463 12.5242 5.49467 15.8214 15.1632 15.8214Z" fill="#F1EEE1"/>
<path d="M15.1633 17.8388C11.2559 17.8388 8.53926 17.1171 6.94846 16.5116C4.995 15.7681 3.93418 14.9003 3.74935 14.3699C3.38392 13.3211 4.03809 12.4809 4.06607 12.4458C4.0798 12.4285 4.09781 12.4152 4.11829 12.4071C4.13878 12.399 4.16103 12.3964 4.18283 12.3995C4.20463 12.4027 4.22523 12.4115 4.24257 12.4251C4.2599 12.4387 4.27338 12.4566 4.28165 12.477C4.28474 12.4845 4.63064 13.2862 6.13227 14.08C8.65811 15.4152 12.4375 15.6954 15.1633 15.6954C17.8891 15.6954 21.6686 15.4152 24.1944 14.08C25.6961 13.2862 26.042 12.4845 26.0454 12.4765C26.0538 12.4562 26.0673 12.4384 26.0847 12.425C26.102 12.4115 26.1226 12.4028 26.1443 12.3996C26.1661 12.3966 26.1882 12.3993 26.2086 12.4074C26.2289 12.4154 26.2469 12.4287 26.2606 12.4458C26.2887 12.481 26.9428 13.3212 26.5773 14.3699C26.3925 14.9003 25.3316 15.7681 23.3782 16.5116C21.7874 17.1171 19.0708 17.8388 15.1633 17.8388ZM4.15631 12.769C4.00129 13.043 3.75666 13.6249 3.98736 14.287C4.14755 14.7468 5.17057 15.5653 7.03807 16.2761C8.60915 16.874 11.2941 17.5867 15.1633 17.5867C19.0325 17.5867 21.7175 16.874 23.2886 16.2761C25.1561 15.5653 26.1792 14.7467 26.3394 14.287C26.57 13.6251 26.3255 13.0432 26.1704 12.769C25.9759 13.0724 25.4781 13.6794 24.3478 14.2839C21.7773 15.6588 17.9344 15.9474 15.1633 15.9474C12.3922 15.9474 8.54935 15.6588 5.97889 14.2839C4.84868 13.6794 4.35085 13.0723 4.15631 12.769ZM12.6117 7.63398C12.2604 7.88277 11.8338 7.06525 9.9947 6.89744C8.93784 6.80102 8.55187 7.3022 8.12531 7.10079C7.82648 6.95964 7.78167 5.9041 10.0093 5.84481C11.5489 5.80384 13.175 7.23502 12.6117 7.63398ZM7.12422 1.96347C6.89585 2.13658 6.52694 4.20233 6.7954 4.55775C7.21143 5.10852 10.1552 3.30573 9.88322 2.79239C9.61118 2.27918 7.62325 1.58531 7.12422 1.96347Z" fill="#F1EEE1"/>
<path d="M7.07262 4.78733H7.0725C6.89813 4.78727 6.77077 4.73566 6.69383 4.6337C6.39318 4.23575 6.74071 2.09525 7.04704 1.86303C7.16425 1.77418 7.34177 1.72919 7.57468 1.72919C8.48565 1.72919 9.77372 2.31858 9.99358 2.73342C10.0501 2.84011 10.0333 2.96986 9.94348 3.11902C9.57988 3.7231 7.86027 4.78733 7.07262 4.78733ZM7.57468 1.98125C7.35463 1.98125 7.24907 2.02619 7.19929 2.06393C7.03059 2.22696 6.66572 4.1784 6.89492 4.48183C6.92825 4.52594 7.00986 4.5352 7.0725 4.53527C7.76594 4.53533 9.4069 3.52158 9.72746 2.98908C9.77624 2.90798 9.77769 2.86437 9.77082 2.85145C9.59292 2.51576 8.36233 1.98125 7.57468 1.98125ZM7.56724 9.17753C7.53693 9.17753 7.50605 9.17205 7.47606 9.16045C7.45923 9.1539 5.77914 8.51081 4.70647 8.85722C4.67482 8.86801 4.64134 8.87239 4.60798 8.87012C4.57461 8.86785 4.54204 8.85896 4.51215 8.84397C4.48225 8.82899 4.45564 8.8082 4.43386 8.78283C4.41208 8.75746 4.39556 8.72801 4.38527 8.69619C4.37499 8.66437 4.37113 8.63083 4.37393 8.5975C4.37674 8.56418 4.38614 8.53175 4.4016 8.5021C4.41706 8.47245 4.43827 8.44617 4.46398 8.4248C4.4897 8.40342 4.51941 8.38737 4.55138 8.37759C5.79546 7.97542 7.58331 8.66117 7.65887 8.6906C7.71364 8.71194 7.75923 8.75176 7.78775 8.80316C7.81627 8.85456 7.82594 8.91431 7.81506 8.97208C7.80419 9.02984 7.77348 9.082 7.72822 9.11951C7.68297 9.15703 7.62603 9.17755 7.56724 9.17753ZM4.62915 10.4217C4.57273 10.4218 4.51791 10.403 4.47347 10.3682C4.42903 10.3335 4.39753 10.2848 4.38402 10.23C4.37051 10.1753 4.37576 10.1175 4.39894 10.0661C4.42212 10.0147 4.46189 9.9725 4.51187 9.94634C5.57226 9.3904 7.39817 9.75287 7.47537 9.76856C7.54086 9.78188 7.59838 9.82067 7.63528 9.87638C7.67219 9.9321 7.68545 10.0002 7.67217 10.0657C7.66561 10.0981 7.65272 10.129 7.63423 10.1564C7.61575 10.1839 7.59203 10.2075 7.56443 10.2258C7.53683 10.244 7.5059 10.2567 7.47341 10.263C7.44091 10.2694 7.40748 10.2692 7.37504 10.2626C7.35784 10.2591 5.64725 9.92037 4.74598 10.3929C4.70994 10.4118 4.66985 10.4217 4.62915 10.4217ZM5.16233 12.0686C5.10814 12.0687 5.05537 12.0513 5.01186 12.019C4.96834 11.9867 4.93638 11.9412 4.92073 11.8894C4.90508 11.8375 4.90656 11.7819 4.92496 11.731C4.94336 11.68 4.97769 11.6363 5.02288 11.6064C6.01615 10.9484 7.49074 10.8575 7.553 10.854C7.6934 10.8459 7.81112 10.9524 7.819 11.0914C7.82687 11.2303 7.72069 11.3493 7.5818 11.3573C7.56787 11.3582 6.17961 11.4449 5.30128 12.0268C5.2601 12.0541 5.21176 12.0687 5.16233 12.0686ZM15.0822 10.4184C15.6154 10.4184 16.1309 10.4539 17.2328 10.9005C18.3346 11.347 18.8856 10.7027 19.2233 10.3829C19.5609 10.0629 20.0231 9.90298 19.7387 10.5961C19.0101 12.0002 17.8015 11.7514 17.0195 11.4848C16.2375 11.2182 15.8465 11.0938 15.0823 11.0938H15.1624C14.3981 11.0938 14.0071 11.2182 13.2251 11.4848C12.4431 11.7514 11.2345 12.0002 10.5058 10.5961C10.2215 9.90298 10.6836 10.0629 11.0213 10.3829C11.359 10.7027 11.91 11.347 13.0118 10.9005C14.1138 10.4539 14.6292 10.4184 15.1624 10.4184H15.0822ZM17.6339 7.63399C17.9852 7.88278 18.4118 7.06527 20.2509 6.89745C21.3078 6.80104 21.6937 7.30221 22.1203 7.10081C22.4191 6.95965 22.4639 5.90412 20.2363 5.84482C18.6967 5.80386 17.0706 7.23503 17.6339 7.63399ZM23.1214 1.96348C23.3498 2.13659 23.7187 4.20235 23.4502 4.55776C23.0342 5.10853 20.0904 3.30574 20.3624 2.79241C20.6344 2.2792 22.6224 1.58532 23.1214 1.96348Z" fill="#F1EEE1"/>
<path d="M23.1725 4.78733C22.3848 4.78733 20.665 3.72298 20.3015 3.1189C20.2117 2.9698 20.1949 2.84005 20.2514 2.73342C20.4713 2.31858 21.7594 1.72919 22.6703 1.72919C22.9032 1.72919 23.0808 1.77418 23.198 1.86303C23.5043 2.09525 23.8519 4.23568 23.5512 4.6337C23.4743 4.7356 23.3469 4.78733 23.1725 4.78733ZM22.6703 1.98125C21.8827 1.98125 20.6521 2.5157 20.4741 2.85145C20.4673 2.86437 20.4687 2.90792 20.5175 2.98896C20.8379 3.52145 22.4789 4.53527 23.1725 4.53527C23.2351 4.53527 23.3167 4.526 23.35 4.48183C23.5792 4.1784 23.2144 2.22696 23.0437 2.06223C22.996 2.02619 22.8904 1.98125 22.6703 1.98125ZM22.6778 9.17753C22.619 9.17759 22.562 9.15709 22.5167 9.11956C22.4714 9.08204 22.4407 9.02987 22.4298 8.97207C22.4189 8.91427 22.4286 8.85449 22.4572 8.80308C22.4857 8.75166 22.5313 8.71185 22.5862 8.69054C22.6617 8.66117 24.4496 7.97523 25.6936 8.37753C25.7256 8.38731 25.7553 8.40336 25.781 8.42473C25.8068 8.44611 25.828 8.47239 25.8434 8.50204C25.8589 8.53169 25.8683 8.56412 25.8711 8.59744C25.8739 8.63076 25.87 8.66431 25.8598 8.69613C25.8495 8.72794 25.833 8.75739 25.8112 8.78277C25.7894 8.80814 25.7628 8.82892 25.7329 8.84391C25.703 8.8589 25.6704 8.86778 25.6371 8.87006C25.6037 8.87233 25.5702 8.86794 25.5386 8.85715C24.4661 8.51075 22.7858 9.15384 22.769 9.16039C22.7399 9.17175 22.709 9.17757 22.6778 9.17753ZM25.6159 10.4217C25.5752 10.4217 25.5351 10.4118 25.499 10.3929C24.5978 9.92031 22.8871 10.2592 22.87 10.2626C22.7336 10.2905 22.6005 10.2021 22.5729 10.0657C22.5596 10.0002 22.5728 9.9321 22.6097 9.87638C22.6467 9.82067 22.7042 9.78188 22.7697 9.76856C22.8469 9.75294 24.6728 9.39046 25.7332 9.94634C25.7831 9.97253 25.8228 10.0147 25.8459 10.0661C25.8691 10.1176 25.8743 10.1752 25.8608 10.23C25.8473 10.2847 25.8158 10.3334 25.7714 10.3681C25.727 10.4029 25.6723 10.4218 25.6159 10.4217ZM25.0827 12.0686C25.0333 12.0686 24.9849 12.0541 24.9437 12.0267C24.0628 11.4431 22.6772 11.3581 22.6633 11.3573C22.6302 11.3554 22.5979 11.347 22.5681 11.3327C22.5383 11.3183 22.5116 11.2982 22.4895 11.2735C22.4675 11.2488 22.4505 11.22 22.4396 11.1887C22.4287 11.1574 22.4241 11.1243 22.426 11.0913C22.4278 11.0582 22.4361 11.0258 22.4505 10.996C22.4648 10.9661 22.4849 10.9394 22.5097 10.9174C22.5344 10.8953 22.5632 10.8784 22.5945 10.8675C22.6258 10.8566 22.6589 10.852 22.692 10.854C22.7542 10.8575 24.2288 10.9484 25.2221 11.6063C25.2497 11.6246 25.2734 11.6482 25.2919 11.6756C25.3104 11.7031 25.3233 11.7339 25.3299 11.7663C25.3365 11.7988 25.3366 11.8322 25.3303 11.8647C25.3239 11.8972 25.3113 11.9281 25.293 11.9557C25.27 11.9905 25.2388 12.019 25.2021 12.0387C25.1654 12.0584 25.1244 12.0687 25.0827 12.0686Z" fill="#F1EEE1"/>
<path d="M12.4593 17.655C12.4408 17.655 12.4223 17.647 12.4094 17.6317C12.3916 17.6105 11.9735 17.1046 12.0313 16.5202C12.0618 16.2113 12.2201 15.9402 12.5016 15.7144C12.5082 15.7089 12.5159 15.7047 12.5242 15.7022C12.5324 15.6997 12.5411 15.6988 12.5497 15.6997C12.5583 15.7006 12.5666 15.7031 12.5742 15.7073C12.5818 15.7114 12.5885 15.717 12.5939 15.7237C12.5993 15.7304 12.6033 15.7382 12.6057 15.7465C12.6081 15.7548 12.6088 15.7635 12.6078 15.7721C12.6068 15.7807 12.6041 15.789 12.5998 15.7965C12.5956 15.804 12.5899 15.8106 12.583 15.8159C12.3298 16.019 12.1878 16.2603 12.1608 16.533C12.1085 17.0634 12.5052 17.5432 12.5092 17.548C12.5171 17.5575 12.5222 17.569 12.5238 17.5813C12.5255 17.5936 12.5235 17.6061 12.5183 17.6173C12.5131 17.6286 12.5048 17.6381 12.4943 17.6447C12.4839 17.6514 12.4717 17.655 12.4593 17.655ZM8.65741 16.992C8.6346 16.992 8.61248 16.98 8.60057 16.9587C7.94349 15.7848 8.84186 15.2003 8.85106 15.1945C8.85829 15.1899 8.86635 15.1868 8.87477 15.1854C8.8832 15.1839 8.89183 15.1841 8.90017 15.186C8.9085 15.1879 8.91639 15.1914 8.92337 15.1964C8.93036 15.2013 8.9363 15.2075 8.94086 15.2148C8.94543 15.222 8.94852 15.2301 8.94997 15.2385C8.95142 15.2469 8.9512 15.2555 8.94932 15.2639C8.94743 15.2722 8.94392 15.2801 8.93899 15.2871C8.93406 15.2941 8.9278 15.3 8.92057 15.3046C8.88686 15.3261 8.11912 15.832 8.71425 16.8951C8.71983 16.905 8.72271 16.9162 8.7226 16.9275C8.7225 16.9389 8.71942 16.95 8.71367 16.9598C8.70792 16.9697 8.6997 16.9778 8.68983 16.9834C8.67996 16.9891 8.66878 16.992 8.65741 16.992ZM5.46523 15.7611C5.43668 15.7611 5.41053 15.7422 5.40253 15.7134C5.06658 14.5026 5.9947 14.1107 6.00415 14.1069C6.02005 14.1008 6.0377 14.1012 6.05332 14.108C6.06894 14.1147 6.08128 14.1274 6.0877 14.1431C6.09412 14.1589 6.09411 14.1765 6.08767 14.1923C6.08122 14.2081 6.06887 14.2207 6.05324 14.2274C6.01921 14.2414 5.22388 14.5822 5.52806 15.6786C5.53077 15.6883 5.53119 15.6984 5.5293 15.7083C5.52742 15.7182 5.52327 15.7275 5.51718 15.7355C5.51109 15.7435 5.50323 15.75 5.49422 15.7544C5.4852 15.7589 5.47528 15.7612 5.46523 15.7611ZM10.4008 17.3597C10.3845 17.3597 10.3681 17.3535 10.3554 17.3413C10.0754 17.0693 9.94308 16.7749 9.96205 16.4663C9.99633 15.9088 10.5109 15.5132 10.5328 15.4967C10.5396 15.4915 10.5474 15.4877 10.5556 15.4856C10.5639 15.4834 10.5725 15.4829 10.581 15.484C10.5895 15.4852 10.5976 15.488 10.605 15.4923C10.6124 15.4967 10.6188 15.5024 10.624 15.5092C10.6291 15.516 10.6329 15.5238 10.6351 15.532C10.6372 15.5403 10.6378 15.5489 10.6366 15.5574C10.6354 15.5658 10.6326 15.574 10.6283 15.5814C10.624 15.5888 10.6183 15.5952 10.6114 15.6004C10.6065 15.6041 10.1221 15.9776 10.092 16.475C10.0757 16.7437 10.1948 17.0037 10.4461 17.2478C10.4555 17.2569 10.4619 17.2685 10.4646 17.2811C10.4672 17.2938 10.4661 17.307 10.4612 17.3191C10.4563 17.3311 10.4479 17.3414 10.4372 17.3486C10.4264 17.3558 10.4137 17.3597 10.4008 17.3597ZM6.83446 16.3669C6.80856 16.3669 6.78411 16.3514 6.77396 16.3258C6.634 15.9745 6.62461 15.6558 6.74617 15.3786C6.9344 14.9492 7.3667 14.7796 7.38504 14.7727C7.40116 14.7665 7.41907 14.7669 7.43485 14.774C7.45062 14.781 7.46295 14.794 7.46913 14.8101C7.47532 14.8262 7.47485 14.8442 7.46782 14.8599C7.46079 14.8757 7.44779 14.888 7.43167 14.8942C7.4277 14.8957 7.03057 15.0528 6.86496 15.4321C6.75852 15.6759 6.76861 15.9605 6.89502 16.2777C6.89892 16.2876 6.90035 16.2983 6.89918 16.3089C6.89801 16.3194 6.89428 16.3295 6.88831 16.3383C6.88234 16.3471 6.87431 16.3543 6.86493 16.3593C6.85554 16.3642 6.84508 16.3668 6.83446 16.3669ZM4.29866 14.8986C4.27213 14.8986 4.24718 14.8822 4.23753 14.8558C4.22827 14.8304 4.01319 14.2284 4.248 13.7685C4.35821 13.5527 4.54865 13.4051 4.81408 13.3297C4.83069 13.325 4.8485 13.327 4.86358 13.3354C4.87867 13.3439 4.8898 13.3579 4.89452 13.3745C4.89924 13.3911 4.89717 13.4089 4.88876 13.424C4.88035 13.4391 4.86629 13.4502 4.84968 13.455C4.62068 13.5199 4.45734 13.6453 4.3642 13.8273C4.15505 14.2361 4.35777 14.8054 4.35985 14.8111C4.36344 14.8209 4.3646 14.8315 4.36323 14.8419C4.36187 14.8523 4.35802 14.8622 4.35202 14.8707C4.34602 14.8793 4.33803 14.8863 4.32874 14.8912C4.31945 14.896 4.30914 14.8986 4.29866 14.8986ZM17.8687 17.655C17.8563 17.655 17.8441 17.6514 17.8337 17.6448C17.8233 17.6381 17.8149 17.6286 17.8097 17.6174C17.8044 17.6062 17.8025 17.5937 17.8041 17.5814C17.8057 17.5692 17.8108 17.5576 17.8187 17.5481C17.8227 17.5433 18.2198 17.0616 18.1671 16.5323C18.1399 16.2598 17.9979 16.0189 17.745 15.816C17.7381 15.8107 17.7324 15.8041 17.7282 15.7965C17.7239 15.789 17.7212 15.7807 17.7202 15.7721C17.7192 15.7636 17.7199 15.7549 17.7223 15.7466C17.7247 15.7383 17.7287 15.7305 17.7341 15.7238C17.7395 15.717 17.7462 15.7114 17.7538 15.7073C17.7614 15.7032 17.7697 15.7006 17.7783 15.6998C17.7869 15.6989 17.7956 15.6997 17.8038 15.7023C17.8121 15.7048 17.8198 15.7089 17.8264 15.7144C18.108 15.9402 18.2662 16.2114 18.2967 16.5203C18.3544 17.1045 17.9363 17.6106 17.9186 17.6318C17.9124 17.6391 17.9048 17.6449 17.8962 17.6489C17.8875 17.6529 17.8782 17.655 17.8687 17.655ZM21.6706 16.992C21.6592 16.992 21.6481 16.989 21.6382 16.9834C21.6284 16.9777 21.6202 16.9696 21.6144 16.9598C21.6087 16.95 21.6056 16.9389 21.6055 16.9275C21.6054 16.9161 21.6083 16.905 21.6139 16.8951C22.2112 15.8277 21.4406 15.3255 21.4076 15.3046C21.393 15.2954 21.3827 15.2808 21.3788 15.264C21.375 15.2471 21.3781 15.2294 21.3873 15.2148C21.3965 15.2002 21.4111 15.1899 21.4279 15.1861C21.4448 15.1822 21.4625 15.1853 21.4771 15.1945C21.4863 15.2003 22.3845 15.7848 21.7276 16.9587C21.7219 16.9688 21.7136 16.9772 21.7036 16.9831C21.6936 16.9889 21.6822 16.992 21.6706 16.992ZM24.8627 15.7611C24.8527 15.7612 24.8428 15.7588 24.8338 15.7544C24.8248 15.7499 24.8169 15.7435 24.8108 15.7355C24.8048 15.7275 24.8006 15.7182 24.7987 15.7083C24.7968 15.6985 24.7972 15.6883 24.7999 15.6786C24.9287 15.2147 24.8786 14.8292 24.651 14.5329C24.4824 14.3134 24.277 14.2284 24.2749 14.2275C24.267 14.2243 24.2598 14.2195 24.2537 14.2135C24.2476 14.2075 24.2427 14.2004 24.2394 14.1925C24.2361 14.1846 24.2343 14.1762 24.2343 14.1676C24.2342 14.1591 24.2358 14.1506 24.2391 14.1427C24.2423 14.1348 24.247 14.1276 24.253 14.1215C24.259 14.1154 24.2662 14.1106 24.274 14.1072C24.2819 14.1039 24.2904 14.1022 24.2989 14.1021C24.3075 14.102 24.3159 14.1037 24.3238 14.1069C24.3332 14.1107 25.2614 14.5026 24.9255 15.7134C24.9216 15.7271 24.9134 15.7392 24.9021 15.7478C24.8908 15.7564 24.8769 15.7611 24.8627 15.7611ZM19.9272 17.3597C19.9142 17.3597 19.9016 17.3558 19.8908 17.3485C19.8801 17.3413 19.8718 17.331 19.8669 17.319C19.8621 17.307 19.8609 17.2939 19.8635 17.2812C19.8662 17.2685 19.8725 17.2569 19.8818 17.2479C20.1331 17.0038 20.2523 16.7438 20.2359 16.4751C20.2058 15.9777 19.7213 15.6042 19.7165 15.6004C19.6879 15.5787 19.6823 15.5379 19.704 15.5093C19.7256 15.4806 19.7665 15.4749 19.7951 15.4967C19.8169 15.5133 20.3315 15.9089 20.3658 16.4664C20.3848 16.7749 20.2525 17.0693 19.9725 17.3413C19.9599 17.3536 19.9435 17.3597 19.9272 17.3597ZM23.4935 16.3669C23.4829 16.3669 23.4724 16.3643 23.463 16.3593C23.4536 16.3543 23.4456 16.3471 23.4396 16.3383C23.4336 16.3295 23.4299 16.3194 23.4288 16.3088C23.4276 16.2983 23.4291 16.2876 23.433 16.2777C23.5594 15.9604 23.5695 15.6759 23.4631 15.4321C23.2975 15.0527 22.9004 14.8957 22.8963 14.8941C22.8802 14.888 22.8672 14.8756 22.8602 14.8599C22.8532 14.8441 22.8527 14.8262 22.8589 14.8101C22.865 14.7939 22.8774 14.7809 22.8932 14.7739C22.9089 14.7669 22.9268 14.7664 22.943 14.7726C22.9613 14.7796 23.3935 14.9492 23.5818 15.3786C23.7033 15.6557 23.694 15.9744 23.5541 16.3258C23.5439 16.3513 23.5194 16.3669 23.4935 16.3669ZM26.0292 14.8986C26.0187 14.8986 26.0084 14.896 25.9992 14.8912C25.9899 14.8864 25.9819 14.8794 25.9759 14.8708C25.9699 14.8622 25.966 14.8524 25.9647 14.842C25.9633 14.8316 25.9644 14.8211 25.968 14.8112C25.9701 14.8055 26.1728 14.2363 25.9637 13.8274C25.8706 13.6453 25.7073 13.5201 25.4783 13.4551C25.4616 13.4504 25.4476 13.4392 25.4392 13.4242C25.4308 13.4091 25.4287 13.3913 25.4334 13.3747C25.4381 13.358 25.4493 13.344 25.4644 13.3356C25.4794 13.3272 25.4972 13.3251 25.5139 13.3298C25.7793 13.4052 25.9698 13.5528 26.0799 13.7687C26.3147 14.2286 26.0997 14.8305 26.0904 14.8559C26.0858 14.8684 26.0774 14.8792 26.0665 14.8868C26.0556 14.8945 26.0425 14.8985 26.0292 14.8986Z" fill="#9F353A"/>
<path d="M28.721 7.9553C29.8337 7.89777 31.0391 8.68063 31.0203 10.1316C30.9975 11.8817 29.6716 11.5359 29.6716 11.5359C29.6716 11.5359 29.9326 11.2125 29.788 10.2042C29.7839 10.6889 30.1328 11.7838 28.8355 11.8576C27.6984 11.9222 28.0023 10.2249 28.0023 10.2249C28.0023 10.2249 28.2558 11.9566 27.1258 11.8159C25.8361 11.6552 26.2576 10.5862 26.2859 10.1024C26.0743 11.0988 26.3129 11.4388 26.3129 11.4388C26.3129 11.4388 24.9668 11.6952 25.0614 9.94733C25.1397 8.49864 26.1494 7.93508 27.4046 7.92096L28.721 7.9553Z" fill="#9F353A"/>
<path d="M28.7733 12.1115C28.4329 12.1115 28.1645 11.9799 27.983 11.7315C27.7581 12.0199 27.4545 12.0762 27.2521 12.0762C27.2014 12.0762 27.1485 12.0728 27.0948 12.0662C26.8063 12.0302 26.4754 11.9339 26.2432 11.7004C26.2081 11.7029 26.173 11.7041 26.1378 11.7041C25.9206 11.7041 25.5098 11.655 25.1981 11.326C24.9071 11.0187 24.7764 10.5503 24.8098 9.93379C24.8867 8.51213 25.8314 7.68667 27.4018 7.66896C27.4048 7.66896 27.408 7.6689 27.4112 7.66902L28.7181 7.70312C28.7574 7.70128 28.7968 7.70035 28.8361 7.70034C29.5084 7.70034 30.1557 7.96558 30.6123 8.42806C31.0529 8.87441 31.2812 9.46463 31.2726 10.1349C31.2528 11.652 30.3279 11.8158 29.9312 11.8158C29.8494 11.8158 29.7782 11.8092 29.7235 11.8016C29.5399 11.964 29.2637 12.0858 28.8499 12.1093C28.8244 12.1107 28.7989 12.1115 28.7733 12.1115ZM28.2467 11.0562C28.333 11.5437 28.5725 11.6073 28.7733 11.6073C28.7889 11.6073 28.8049 11.6069 28.8213 11.606C29.3804 11.5742 29.5051 11.3459 29.5518 11.1256C29.5623 11.0659 29.5699 11.0007 29.5745 10.9318C29.5805 10.7927 29.5666 10.638 29.5543 10.5016C29.5445 10.3941 29.5354 10.2925 29.5362 10.2021C29.5367 10.1385 29.5612 10.0775 29.6049 10.0313C29.6485 9.98505 29.708 9.957 29.7714 9.95276C29.8348 9.94864 29.8974 9.96856 29.9468 10.0085C29.9962 10.0485 30.0286 10.1057 30.0378 10.1685C30.0798 10.4619 30.0932 10.73 30.0776 10.9653C30.0742 11.0513 30.064 11.137 30.0469 11.2213C30.0418 11.2501 30.0359 11.2787 30.0294 11.3071C30.5104 11.2609 30.7589 10.8649 30.7686 10.1284C30.7755 9.59595 30.5974 9.13045 30.2536 8.78222C29.8911 8.41508 29.3745 8.20448 28.8362 8.20448C28.8021 8.20448 28.7681 8.20536 28.7342 8.20713C28.7277 8.20746 28.7211 8.20755 28.7146 8.20738L27.4029 8.17316C26.4919 8.1845 25.392 8.50438 25.3133 9.96101C25.2877 10.434 25.3721 10.7764 25.5641 10.9792C25.6847 11.1065 25.8352 11.1636 25.9717 11.1866C25.9672 11.158 25.9633 11.1293 25.9601 11.1006C25.9484 11.0124 25.9439 10.9233 25.9466 10.8344C25.9468 10.6049 25.9782 10.3391 26.0396 10.0501C26.0528 9.98794 26.089 9.93304 26.141 9.89642C26.1929 9.8598 26.2568 9.84416 26.3198 9.85264C26.3828 9.86112 26.4403 9.89309 26.4807 9.94214C26.5211 9.99119 26.5415 10.0537 26.5378 10.1172C26.5325 10.2075 26.5166 10.308 26.4997 10.4147C26.4783 10.5495 26.4541 10.7022 26.4506 10.8467C26.4506 10.9109 26.4538 10.977 26.4604 11.038C26.4923 11.2607 26.6015 11.4965 27.1572 11.5658C27.1902 11.5699 27.2222 11.572 27.2522 11.572C27.3567 11.572 27.6302 11.572 27.7357 11.0502C27.678 10.6161 27.7512 10.1986 27.7544 10.1806C27.7649 10.1216 27.7961 10.0684 27.8423 10.0303C27.8885 9.99223 27.9467 9.97185 28.0066 9.97281C28.0665 9.97376 28.124 9.99599 28.169 10.0355C28.2139 10.075 28.2434 10.1293 28.252 10.1885C28.2546 10.2067 28.3144 10.6261 28.2467 11.0562Z" fill="#F1EEE1"/>
<path d="M2.768 16.0143C3.71949 15.4345 5.15218 15.5499 5.8257 16.8351C6.63799 18.3855 5.30714 18.7118 5.30714 18.7118C5.30714 18.7118 5.38282 18.3034 4.77622 17.485C5.00308 17.9135 5.83068 18.7105 4.72455 19.3925C3.75509 19.9901 3.21523 18.3526 3.21523 18.3526C3.21523 18.3526 4.26181 19.7553 3.20086 20.1689C1.98987 20.6409 1.85243 19.5002 1.64712 19.061C1.93485 20.0383 2.30634 20.2239 2.30634 20.2239C2.30634 20.2239 1.24425 21.0896 0.496113 19.5071C-0.124036 18.1955 0.496113 17.2196 1.59349 16.61L2.768 16.0143Z" fill="#9F353A"/>
<path d="M1.63264 20.7123C1.24678 20.7123 0.696898 20.5219 0.268068 19.6149C-0.340423 18.3279 0.098049 17.1524 1.47093 16.3897C1.47371 16.3882 1.47648 16.3867 1.47932 16.3853L2.64519 15.7938C3.0359 15.558 3.50222 15.4281 3.95947 15.4281C4.85759 15.4281 5.61915 15.8983 6.04873 16.7181C6.36073 17.3136 6.42305 17.8279 6.234 18.2469C6.04728 18.6607 5.66811 18.8493 5.47887 18.9205C5.39468 19.1508 5.2096 19.3895 4.85658 19.6071C4.53998 19.8024 4.20864 19.8262 3.9124 19.686C3.85732 20.0158 3.64647 20.2657 3.29219 20.4038C2.93973 20.5412 2.62881 20.5682 2.36773 20.4885C2.2306 20.5761 1.96373 20.7123 1.63264 20.7123ZM1.71172 16.8327C0.915819 17.2761 0.100444 18.0808 0.72387 19.3994C0.977575 19.9361 1.28333 20.2082 1.63264 20.2082C1.72477 20.2082 1.8111 20.1895 1.88571 20.1641C1.86882 20.142 1.85156 20.1184 1.83404 20.0931C1.78228 20.0216 1.73638 19.946 1.69679 19.8671C1.58777 19.665 1.48877 19.4161 1.40521 19.1323C1.38721 19.0713 1.39293 19.0058 1.42122 18.9488C1.44951 18.8919 1.49827 18.8477 1.55774 18.8252C1.61721 18.8027 1.68299 18.8035 1.74189 18.8274C1.8008 18.8514 1.84848 18.8967 1.87538 18.9543C1.91369 19.0363 1.94759 19.1325 1.98339 19.2343C2.02876 19.3632 2.08018 19.5092 2.14591 19.6381C2.17616 19.6942 2.21025 19.7503 2.24466 19.8005C2.36187 19.9586 2.49653 20.0292 2.6808 20.0292C2.80311 20.0292 2.94729 19.9972 3.10918 19.9341C3.2402 19.883 3.54337 19.7647 3.37285 19.2055C3.11555 18.8511 2.98145 18.449 2.97565 18.4315C2.95689 18.3747 2.95897 18.3131 2.9815 18.2576C3.00404 18.2022 3.04557 18.1566 3.09866 18.1289C3.15176 18.1013 3.21295 18.0935 3.27128 18.1068C3.32962 18.1202 3.38131 18.1539 3.41708 18.2019C3.42811 18.2166 3.68018 18.5571 3.82524 18.9677C3.98569 19.1695 4.14758 19.2717 4.30669 19.2717C4.39523 19.2717 4.49127 19.2402 4.5921 19.178C5.06863 18.8842 5.06989 18.6243 5.00643 18.4085C4.98544 18.3462 4.96111 18.2852 4.93352 18.2255C4.87271 18.1007 4.78713 17.9717 4.71164 17.8578C4.65196 17.7679 4.59563 17.6829 4.55328 17.6029C4.52339 17.5467 4.51586 17.4813 4.53221 17.4198C4.54855 17.3583 4.58756 17.3053 4.64139 17.2713C4.69522 17.2374 4.7599 17.2251 4.82244 17.2369C4.88497 17.2487 4.94073 17.2837 4.97852 17.3349C5.15465 17.5725 5.29366 17.8014 5.39178 18.0154C5.43012 18.0934 5.46211 18.1744 5.48744 18.2576C5.49683 18.2862 5.50509 18.3136 5.5124 18.3399C5.61152 18.2726 5.71474 18.1742 5.77618 18.0358C5.89592 17.7657 5.83737 17.4011 5.60219 16.9521C5.26253 16.304 4.66375 15.9323 3.95947 15.9323C3.59007 15.9323 3.21348 16.0379 2.8989 16.2296C2.89332 16.233 2.8876 16.2362 2.88176 16.2391L1.71172 16.8327Z" fill="#F1EEE1"/>
</svg>
