<svg width="30" height="30" viewBox="0 0 30 30" fill="none" xmlns="http://www.w3.org/2000/svg">
<path d="M16.2411 30H13.7586C5.25859 30 -1.20691 23.45 0.190591 16.255L1.43159 9.864C2.53659 4.172 8.27559 0 15.0001 0C21.7241 0 27.4626 4.172 28.5681 9.864L29.8096 16.2545C31.2071 23.45 24.7411 30 16.2411 30Z" fill="#9F353A"/>
<path d="M19.6107 18.5001H10.3902C5.9842 18.5001 2.7112 14.6771 3.6667 10.6466L3.7032 10.4936C4.8797 5.53112 9.5767 2.00012 15.0002 2.00012C20.5792 2.00012 25.3647 5.73012 26.3807 10.8706C27.1672 14.8386 23.9172 18.5001 19.6107 18.5001Z" fill="#F1EEE1"/>
<path d="M20 13.5002C21.933 13.5002 23.5 11.9332 23.5 10.0002C23.5 8.06725 21.933 6.50024 20 6.50024C18.067 6.50024 16.5 8.06725 16.5 10.0002C16.5 11.9332 18.067 13.5002 20 13.5002Z" fill="white"/>
<path d="M10 13.5002C11.933 13.5002 13.5 11.9332 13.5 10.0002C13.5 8.06725 11.933 6.50024 10 6.50024C8.067 6.50024 6.5 8.06725 6.5 10.0002C6.5 11.9332 8.067 13.5002 10 13.5002Z" fill="#9F353A"/>
<path d="M20 12.0005C21.1046 12.0005 22 11.1051 22 10.0005C22 8.89592 21.1046 8.00049 20 8.00049C18.8954 8.00049 18 8.89592 18 10.0005C18 11.1051 18.8954 12.0005 20 12.0005Z" fill="#9F353A"/>
<path d="M19.3302 29.3344L19.0442 29.7524C19.5225 29.668 19.9905 29.5627 20.4482 29.4364L20.6092 29.1809C21.2957 28.0977 21.5957 26.8142 21.4603 25.539C21.325 24.2637 20.7623 23.0718 19.8637 22.1569L19.1377 22.8444C19.8906 23.5938 20.3635 24.579 20.4774 25.6352C20.5912 26.6914 20.3391 27.7547 19.7632 28.6474L19.3302 29.3344ZM24.5452 21.8109C25.0662 22.4175 25.389 23.1691 25.4702 23.9647C25.5513 24.7602 25.387 25.5615 24.9992 26.2609L24.4967 27.1014L24.0337 27.9254C24.7314 27.512 25.3905 27.0367 26.0032 26.5054C26.4147 25.6482 26.5699 24.6904 26.4503 23.7471C26.3306 22.8038 25.9412 21.9152 25.3287 21.1879L24.5452 21.8109ZM28.6867 22.1169L28.2287 23.9814C28.9175 22.9427 29.4206 21.7923 29.7157 20.5814C29.5999 20.0892 29.3559 19.6364 29.0085 19.2689C28.6611 18.9015 28.2226 18.6326 27.7377 18.4894L27.4577 19.4494C27.8889 19.5764 28.2597 19.8549 28.502 20.2335C28.7442 20.6122 28.8416 21.0656 28.7762 21.5104L28.6867 22.1169ZM10.1377 22.1569C9.23906 23.0718 8.67634 24.2637 8.54099 25.539C8.40564 26.8142 8.70562 28.0977 9.39216 29.1809L9.56166 29.4384C10.0137 29.5624 10.4758 29.6665 10.9482 29.7509L10.6812 29.3509L10.2382 28.6484C9.66221 27.7557 9.41009 26.6924 9.52394 25.6362C9.63778 24.58 10.1107 23.5948 10.8637 22.8454L10.1377 22.1569ZM5.50066 27.0914L5.00066 26.2624C4.61272 25.5631 4.44827 24.7617 4.52944 23.9661C4.6106 23.1706 4.93349 22.4189 5.45466 21.8124L4.67116 21.1914C4.05909 21.9187 3.67001 22.8073 3.55063 23.7504C3.43125 24.6935 3.58664 25.651 3.99816 26.5079C4.67707 27.0943 5.41231 27.6122 6.19316 28.0539L5.50066 27.0914ZM2.54366 19.4504L2.26366 18.4904C1.7789 18.6334 1.34057 18.902 0.993107 19.2691C0.645647 19.6361 0.40141 20.0885 0.285156 20.5804C0.570909 21.7557 1.05283 22.8744 1.71066 23.8894L1.32366 22.1619L1.22366 21.5089C1.15895 21.0643 1.25684 20.6114 1.49933 20.2332C1.74183 19.855 2.11265 19.5771 2.54366 19.4504Z" fill="#F1EEE1"/>
<path d="M22.335 4.45806C21.8111 4.05712 21.2543 3.70118 20.6705 3.39405L16.6145 4.00855C16.4178 4.03828 16.241 4.1449 16.123 4.30495C16.0049 4.46501 15.9553 4.6654 15.985 4.86205C16.0147 5.0587 16.1213 5.23549 16.2814 5.35354C16.4414 5.47159 16.6418 5.52123 16.8385 5.49155L21.862 4.73056C22.0485 4.70293 22.2175 4.60554 22.335 4.45806ZM8.13847 4.73056L13.162 5.49155C13.3586 5.52123 13.559 5.47159 13.7191 5.35354C13.8791 5.23549 13.9857 5.0587 14.0155 4.86205C14.0451 4.6654 13.9955 4.46501 13.8775 4.30495C13.7594 4.1449 13.5826 4.03828 13.386 4.00855L9.32747 3.39355C8.74518 3.70175 8.19003 4.05869 7.66797 4.46055C7.78523 4.60656 7.95324 4.70298 8.13847 4.73056Z" fill="#9F353A"/>
</svg>
