<svg width="18" height="18" viewBox="0 0 18 18" fill="none" xmlns="http://www.w3.org/2000/svg">
<path d="M3.9375 0C4.08668 0 4.22976 0.0592632 4.33525 0.164752C4.44074 0.270242 4.5 0.413316 4.5 0.5625V1.125H13.5V0.5625C13.5 0.413316 13.5593 0.270242 13.6648 0.164752C13.7702 0.0592632 13.9133 0 14.0625 0C14.2117 0 14.3548 0.0592632 14.4602 0.164752C14.5657 0.270242 14.625 0.413316 14.625 0.5625V1.125H15.75C16.3467 1.125 16.919 1.36205 17.341 1.78401C17.7629 2.20597 18 2.77826 18 3.375V15.75C18 16.3467 17.7629 16.919 17.341 17.341C16.919 17.7629 16.3467 18 15.75 18H2.25C1.65326 18 1.08097 17.7629 0.65901 17.341C0.237053 16.919 0 16.3467 0 15.75V5.625H18V4.5H0V3.375C0 2.77826 0.237053 2.20597 0.65901 1.78401C1.08097 1.36205 1.65326 1.125 2.25 1.125H3.375V0.5625C3.375 0.413316 3.43426 0.270242 3.53975 0.164752C3.64524 0.0592632 3.78832 0 3.9375 0Z" fill="#9F353A"/>
</svg>
