<svg width="37" height="30" viewBox="0 0 37 30" fill="none" xmlns="http://www.w3.org/2000/svg">
<path d="M11.753 27.1561C11.753 27.1561 5.89706 28.4754 3.20638 23.8185C2.27504 21.9557 3.41341 21.283 4.55172 21.5935C5.69003 21.9039 7.308 22.555 7.308 22.555C7.308 22.555 9.5864 25.7326 11.753 27.1561Z" fill="#9F353A"/>
<path d="M19.4306 19.2932C19.6657 19.4727 17.9007 12.2274 14.0199 12.7966C11.5361 13.2106 14.4745 16.6676 14.5805 16.7255C14.6864 16.7835 18.6548 18.7009 19.4306 19.2932Z" fill="#9F353A"/>
<path d="M3.76643 13.8917C3.76643 13.8917 1.95042 12.111 1.40707 12.499C0.863728 12.887 1.93707 16.0565 4.50502 17.0915C4.14044 15.8128 3.76643 13.8917 3.76643 13.8917Z" fill="#F1EEE1"/>
<path d="M4.50507 17.2344C4.48677 17.2344 4.46864 17.2308 4.45167 17.224C2.4287 16.4086 1.2799 14.2965 1.14048 13.1259C1.09657 12.757 1.16004 12.5 1.32416 12.3829C1.40019 12.3285 1.49343 12.3011 1.60122 12.3011C1.91984 12.3011 2.40086 12.5551 3.03087 13.056C3.48669 13.4185 3.85114 13.7748 3.86641 13.7898C3.88705 13.81 3.90104 13.8361 3.90654 13.8645C3.91032 13.8836 4.28362 15.7944 4.64235 17.0524C4.64838 17.0736 4.64941 17.096 4.64535 17.1177C4.6413 17.1394 4.63226 17.1599 4.61896 17.1775C4.60566 17.1952 4.58845 17.2095 4.56869 17.2193C4.54893 17.2292 4.52715 17.2343 4.50507 17.2344ZM1.60122 12.5866C1.55354 12.5866 1.51713 12.596 1.49007 12.6153C1.43788 12.6526 1.3892 12.7999 1.42396 13.0921C1.53233 14.0014 2.47903 15.9648 4.28726 16.8391C3.98257 15.7008 3.68851 14.2342 3.6349 13.963C3.20977 13.5519 2.10488 12.5866 1.60122 12.5866ZM10.2637 13.7413C10.4983 13.9427 10.7212 9.23938 9.47928 9.23938C8.19862 9.23938 8.44613 11.7007 8.44613 11.7007C8.44613 11.7007 9.44515 13.0387 10.2637 13.7413Z" fill="#F1EEE1"/>
<path d="M23.0885 27.5347C23.2825 25.7436 23.4418 21.0568 17.7884 18.3478C12.1351 15.639 7.36478 12.9889 6.12817 5.98095C5.83376 3.3898 4.06723 4.44986 4.0084 5.98095C3.94943 7.51226 1.49028 16.2633 8.71933 24.2957C14.5496 30.7735 18.9443 30.0038 20.8509 29.5957C22.4016 29.2638 22.9658 28.6665 23.0885 27.5347Z" fill="#9F353A"/>
<path d="M18.6491 30C15.339 30 11.9624 28.1131 8.61314 24.3918C2.22799 17.2971 3.34024 9.69887 3.75894 6.83837C3.81462 6.4575 3.85867 6.15667 3.86566 5.97605C3.90057 5.06626 4.50517 4.26813 5.15939 4.26813C5.98529 4.26813 6.21074 5.44827 6.26949 5.96099C6.83554 9.16452 8.14754 11.6146 10.3983 13.6718C12.4741 15.5691 15.1077 16.9057 17.85 18.2197C21.8249 20.1243 23.6853 23.3509 23.2304 27.5507C23.096 28.7901 22.4372 29.4028 20.8807 29.7359C20.24 29.8731 19.5261 30 18.6491 30ZM5.15939 4.55369C4.62247 4.55369 4.17642 5.32419 4.15094 5.98705C4.14344 6.18294 4.10068 6.47521 4.04143 6.8797C3.62808 9.70387 2.52997 17.2058 8.82538 24.2008C12.1182 27.8594 15.4234 29.7144 18.6491 29.7144C19.4995 29.7144 20.1955 29.5905 20.8209 29.4566C22.2505 29.1507 22.8266 28.6257 22.9464 27.5198C23.3871 23.4516 21.5822 20.3246 17.7266 18.4772C14.9642 17.1536 12.3103 15.8061 10.2056 13.8826C7.90496 11.7799 6.56462 9.2771 5.98743 6.00639C5.98693 6.0035 5.9865 6.0006 5.98615 5.99768C5.88356 5.09353 5.57445 4.55369 5.15939 4.55369Z" fill="#9F353A"/>
<path d="M4.00895 5.98094C4.00895 5.98094 -1.28094 2.93903 0.514364 0.895004C2.18838 -1.01103 3.26757 3.10166 4.89747 3.02398C6.52751 2.94631 6.72718 -0.156778 8.74172 0.352443C10.4124 0.774641 9.02671 4.46962 6.12872 5.98094C5.09372 6.48324 4.00895 5.98094 4.00895 5.98094Z" fill="#F1EEE1"/>
<path d="M5.11938 6.34688C4.46731 6.34688 3.97001 6.12008 3.94917 6.11044C3.94537 6.10869 3.94165 6.10676 3.93803 6.10466C3.92911 6.09959 3.03353 5.58216 2.11281 4.84285C0.859928 3.8369 0.156955 2.91776 0.0233136 2.11099C-0.057428 1.62361 0.0717871 1.18271 0.407318 0.800701C0.734282 0.428405 1.06075 0.247432 1.40534 0.247432C2.05763 0.247432 2.59562 0.892295 3.16524 1.57514C3.70137 2.21771 4.25564 2.88228 4.85203 2.88228C4.86495 2.88228 4.8778 2.88192 4.89094 2.88128C5.55279 2.8498 5.96728 2.2462 6.40604 1.60712C6.89684 0.892294 7.40428 0.153198 8.314 0.153198C8.46163 0.153198 8.6174 0.173616 8.77696 0.213951C9.24078 0.331244 9.53033 0.686621 9.59223 1.2149C9.67218 1.89774 9.36628 2.84508 8.77396 3.74888C8.12303 4.74205 7.20717 5.57973 6.19501 6.10751C5.86655 6.267 5.50582 6.34688 5.11938 6.34688ZM4.07446 5.85358C4.12657 5.87643 4.56654 6.06133 5.11946 6.06133C5.46241 6.06133 5.78109 5.99108 6.0668 5.85237C8.10475 4.78952 9.46051 2.54425 9.30867 1.24803C9.26019 0.834183 9.0578 0.579465 8.70707 0.490871C8.57043 0.456318 8.43814 0.438828 8.31407 0.438828C7.5547 0.438828 7.11115 1.0849 6.64155 1.76882C6.18266 2.43716 5.70813 3.12836 4.90457 3.16662C4.14984 3.20232 3.53804 2.46772 2.94607 1.75818C2.44363 1.15586 1.92406 0.533134 1.40542 0.533134C1.14777 0.533134 0.891482 0.682338 0.621915 0.989241C0.341711 1.30828 0.238053 1.66002 0.305088 2.06451C0.592717 3.80128 3.91055 5.75806 4.07446 5.85358Z" fill="#F1EEE1"/>
<path d="M11.9493 20.5226C11.9493 20.5226 8.6894 21.5414 7.55102 19.5751C6.41272 17.6086 7.981 15.6321 7.981 15.6321C7.981 15.6321 10.142 19.1082 11.9493 20.5226Z" fill="white"/>
<path d="M22.4845 22.9175C22.4902 22.9309 20.0734 23.3614 18.3141 21.5196C16.5548 19.6777 16.5566 17.7079 16.5566 17.7079C16.5566 17.7079 20.9113 19.2754 22.4845 22.9175Z" fill="#F8FFFF"/>
<path d="M21.8266 23.1143C21.0096 23.1143 19.4536 22.92 18.2111 21.6194C16.4327 19.7574 16.414 17.7917 16.4141 17.7089C16.4141 17.686 16.4197 17.6635 16.4302 17.6432C16.4408 17.6229 16.4561 17.6054 16.4749 17.5923C16.4936 17.5791 16.5152 17.5706 16.5379 17.5676C16.5606 17.5645 16.5837 17.567 16.6052 17.5747C16.6494 17.5906 21.0363 19.2054 22.6157 22.862C22.6349 22.9062 22.6303 22.9573 22.6038 22.9975C22.5667 23.0534 22.527 23.0662 22.3202 23.089C22.1562 23.1063 21.9915 23.1147 21.8266 23.1143ZM16.7149 17.9253C16.7733 18.4775 17.0557 19.9962 18.4177 21.422C19.5868 22.6459 21.0553 22.8286 21.8267 22.8286C22.0177 22.8286 22.1716 22.8178 22.2781 22.8063C20.893 19.8252 17.5755 18.2835 16.7149 17.9253Z" fill="#9F353A"/>
<path d="M3.94746 14.7671C3.94746 14.7671 6.00034 12.5893 5.32771 10.1573C4.65515 7.72521 3.881 7.00125 3.881 7.00125C3.881 7.00125 3.18802 10.5285 3.94746 14.7671Z" fill="#F8FFFF"/>
<path d="M3.94709 14.9103C3.9136 14.9103 3.88116 14.8986 3.85547 14.8771C3.82979 14.8556 3.81248 14.8257 3.8066 14.7927C3.05123 10.5766 3.73364 7.00978 3.74056 6.97416C3.74553 6.94919 3.75707 6.926 3.77399 6.90698C3.79092 6.88796 3.81261 6.8738 3.83684 6.86597C3.86106 6.85814 3.88694 6.85692 3.91179 6.86244C3.93665 6.86795 3.95958 6.88 3.97822 6.89735C4.01099 6.92804 4.78949 7.67685 5.46498 10.1197C6.1511 12.6006 4.13706 14.7741 4.05097 14.8655C4.03761 14.8796 4.02151 14.8909 4.00365 14.8986C3.98579 14.9063 3.96655 14.9103 3.94709 14.9103ZM3.96994 7.33396C3.83087 8.24896 3.48927 11.1137 4.03597 14.4417C4.22144 14.2086 4.51036 13.8096 4.76572 13.3031C5.1438 12.5531 5.52423 11.4053 5.1897 10.1959C4.73366 8.5468 4.23365 7.69884 3.96994 7.33396Z" fill="#9F353A"/>
<path d="M17.8993 23.4559C17.8993 23.4559 13.9851 23.4088 10.3113 19.0623C7.58991 15.8427 6.56724 13.6763 5.99805 10.7268C7.23994 13.1586 9.98237 15.3134 12.9836 17.1337C15.9848 18.9542 17.6405 21.1273 17.8993 23.4559Z" fill="#F1EEE1"/>
<path d="M32.4709 16.108C32.4709 16.108 34.287 17.8887 34.8304 17.5007C35.3736 17.1126 34.3004 13.9432 31.7324 12.9082C32.097 14.1868 32.4709 16.108 32.4709 16.108Z" fill="#9F353A"/>
<path d="M34.6345 17.6993C34.3158 17.6993 33.8348 17.4452 33.2048 16.9443C32.749 16.5818 32.3845 16.2254 32.3692 16.2104C32.3486 16.1902 32.3346 16.1642 32.3291 16.1358C32.3253 16.1166 31.9521 14.2058 31.5934 12.9479C31.5861 12.9222 31.5861 12.8949 31.5936 12.8693C31.601 12.8436 31.6154 12.8205 31.6353 12.8026C31.6551 12.7848 31.6796 12.7728 31.7059 12.7682C31.7322 12.7635 31.7593 12.7663 31.7841 12.7763C33.8071 13.5917 34.9559 15.7037 35.0953 16.8744C35.1392 17.2432 35.0758 17.5002 34.9116 17.6174C34.8355 17.6716 34.7422 17.6993 34.6345 17.6993ZM32.6006 16.0373C33.0257 16.4484 34.1308 17.4137 34.6344 17.4137C34.6821 17.4137 34.7185 17.4043 34.7456 17.3849C34.7978 17.3477 34.8465 17.2004 34.8117 16.9081C34.7033 15.9988 33.7566 14.0354 31.9484 13.1612C32.253 14.2994 32.547 15.7661 32.6006 16.0373ZM25.972 16.2589C25.7374 16.0577 25.5146 20.7609 26.7564 20.7609C28.0371 20.7609 27.7895 18.2996 27.7895 18.2996C27.7895 18.2996 26.7906 16.9615 25.972 16.2589Z" fill="#9F353A"/>
<path d="M26.7567 20.9033C26.3432 20.9033 26.0389 20.5207 25.852 19.7662C25.6732 19.0439 25.6465 18.1716 25.6465 17.7159C25.6465 17.3246 25.6651 16.9509 25.6989 16.6637C25.7421 16.2961 25.794 16.1094 25.9575 16.1094C25.9969 16.1094 26.0341 16.1235 26.0652 16.1501C26.8862 16.8549 27.863 18.1586 27.9041 18.2138C27.9196 18.2345 27.9292 18.2591 27.9318 18.2849C27.9384 18.3509 28.0874 19.9088 27.4742 20.5867C27.2843 20.7968 27.0429 20.9033 26.7567 20.9033ZM26.0121 16.485C25.8951 17.1019 25.8412 19.4247 26.3596 20.3164C26.4775 20.5191 26.6074 20.6177 26.7567 20.6177C26.9615 20.6177 27.1269 20.545 27.2622 20.3956C27.7425 19.8649 27.6694 18.5913 27.6509 18.3524C27.503 18.1573 26.7105 17.1264 26.0121 16.485Z" fill="#9F353A"/>
<path d="M13.1458 2.46469C12.9519 4.25578 12.7926 8.94258 18.446 11.6515C24.0993 14.3603 28.8696 17.0105 30.1062 24.0184C30.4005 26.6096 32.1671 25.5496 32.226 24.0184C32.2849 22.4872 34.7442 13.7361 27.515 5.70363C21.6847 -0.774111 17.2901 -0.00431772 15.3835 0.403674C13.8329 0.735706 13.2685 1.33295 13.1458 2.46469Z" fill="#F8FFFF"/>
<path d="M31.0758 25.7318C30.2498 25.7317 30.0244 24.5517 29.9656 24.0389C29.3996 20.8355 28.0876 18.3853 25.8368 16.3282C23.7609 14.4308 21.1275 13.0942 18.3851 11.7802C14.4104 9.87568 12.5499 6.64908 13.0047 2.4493C13.139 1.20998 13.7978 0.597245 15.3544 0.263998C15.9953 0.126931 16.7091 0 17.586 0C20.8961 0 24.2727 1.8869 27.622 5.60815C34.0071 12.7028 32.8949 20.3011 32.4762 23.1616C32.4206 23.5424 32.3765 23.8433 32.3695 24.0239C32.3345 24.9337 31.73 25.7318 31.0758 25.7318ZM17.586 0.285558C16.7356 0.285558 16.0397 0.409419 15.4142 0.543275C13.9846 0.849322 13.4085 1.37425 13.2886 2.48007C12.8481 6.54842 14.6531 9.67536 18.5085 11.5227C21.2709 12.8463 23.9249 14.1937 26.0296 16.1173C28.3302 18.2201 29.6705 20.7228 30.2477 23.9935C30.2482 23.9964 30.2486 23.9993 30.249 24.0022C30.3516 24.9063 30.6608 25.4462 31.0758 25.4462C31.6127 25.4463 32.0588 24.6758 32.0843 24.0129C32.0918 23.817 32.1346 23.5246 32.1938 23.1201C32.6072 20.2959 33.7052 12.794 27.4098 5.79912C24.1169 2.14062 20.8118 0.285558 17.586 0.285558Z" fill="#AA0909"/>
<path d="M17.2459 11.654C17.1963 11.4883 17.1556 11.3391 17.1236 11.2103C17.3085 11.3202 17.5243 11.4417 17.7562 11.5686C18.2422 11.8342 18.8168 12.1325 19.3688 12.4133C19.9212 12.6943 20.4523 12.9584 20.8518 13.1558C21.0248 13.2412 21.1733 13.3143 21.2879 13.3707C21.3056 13.3794 21.3225 13.3877 21.3386 13.3956L21.4816 13.4661L21.513 13.4817C21.5163 13.4851 21.5201 13.4891 21.5244 13.4938C21.5476 13.5186 21.5807 13.5557 21.6218 13.6042C21.7039 13.7008 21.8143 13.838 21.9369 14.0031C22.1833 14.3348 22.4725 14.7707 22.6816 15.2119C22.8956 15.6637 23.0029 16.0747 22.9461 16.3762C22.9195 16.5176 22.8571 16.6339 22.7476 16.7275C22.635 16.8237 22.4567 16.9091 22.1779 16.9559C21.2973 17.0843 20.5296 16.7742 19.862 16.2115C19.1893 15.6444 18.6303 14.8293 18.1894 13.985C17.7497 13.143 17.4354 12.2873 17.2459 11.654ZM21.4962 13.4653C21.4962 13.4651 21.4974 13.4662 21.5003 13.4689C21.4977 13.4668 21.4963 13.4654 21.4962 13.4653Z" fill="#F8FFFF" stroke="#9F353A" stroke-width="0.5"/>
<path d="M24.4844 2.8447C24.4844 2.8447 30.3403 1.52528 33.0309 6.18223C33.9623 8.04507 32.824 8.7177 31.6856 8.40723C30.5472 8.09676 28.9293 7.44568 28.9293 7.44568C28.9293 7.44568 26.651 4.26806 24.4844 2.8447Z" fill="#F8FFFF"/>
<path d="M32.2087 8.62204C32.026 8.62204 31.8375 8.59591 31.6482 8.5443C30.515 8.23525 28.8925 7.58404 28.8762 7.57747C28.851 7.56734 28.8293 7.55025 28.8135 7.52821C28.7909 7.49673 26.5253 4.35559 24.4062 2.96342C24.3828 2.94803 24.3644 2.92608 24.3533 2.90032C24.3423 2.87455 24.3391 2.8461 24.3441 2.81852C24.3491 2.79094 24.3621 2.76545 24.3816 2.74522C24.401 2.72499 24.4259 2.71093 24.4532 2.70477C24.4852 2.69756 25.2476 2.52866 26.3561 2.52866C27.6313 2.52866 28.8022 2.74782 29.8361 3.18009C31.2585 3.77469 32.375 4.76051 33.1547 6.11013C33.1562 6.11263 33.1575 6.11512 33.1588 6.11769C33.6716 7.14321 33.5404 7.74502 33.3399 8.06927C33.1229 8.42058 32.7105 8.62204 32.2087 8.62204ZM29.0209 7.32782C29.2713 7.42734 30.7023 7.99031 31.7234 8.26888C31.8882 8.31385 32.0514 8.33655 32.2087 8.33655C32.6151 8.33655 32.9307 8.18835 33.097 7.91914C33.3293 7.54342 33.2629 6.96609 32.9053 6.24927C31.263 3.41017 28.4375 2.81421 26.3561 2.81421C25.7075 2.81421 25.1741 2.87518 24.8517 2.92394C25.8897 3.67396 26.9205 4.76679 27.6276 5.58491C28.3654 6.43852 28.902 7.16476 29.0209 7.32782Z" fill="#AA0909"/>
<path d="M32.2285 24.0187C32.2285 24.0187 37.5183 27.0606 35.723 29.1047C34.049 31.0107 32.9698 26.898 31.3399 26.9757C29.7098 27.0533 29.5101 30.1564 27.4956 29.6472C25.825 29.225 27.2106 25.53 30.1086 24.0187C31.1437 23.5164 32.2285 24.0187 32.2285 24.0187Z" fill="#9F353A"/>
<path d="M27.9231 29.8457C27.7755 29.8457 27.6196 29.8253 27.4602 29.785C26.9963 29.6677 26.7068 29.3123 26.6449 28.784C26.5649 28.1012 26.8708 27.1538 27.4632 26.25C28.1141 25.2569 29.0299 24.4192 30.0421 23.8914C30.3706 23.7319 30.7313 23.652 31.1177 23.652C31.7698 23.652 32.2672 23.8788 32.288 23.8884C32.2918 23.8901 32.2955 23.8921 32.2992 23.8942C32.3081 23.8992 33.2037 24.4167 34.1244 25.156C35.3772 26.1619 36.0802 27.0811 36.2138 27.8878C36.2945 28.3753 36.1653 28.8161 35.8298 29.1981C35.5029 29.5704 35.1765 29.7513 34.8318 29.7513H34.8316C34.1793 29.7514 33.6414 29.1065 33.0718 28.4237C32.5357 27.7811 31.9814 27.1165 31.3851 27.1165C31.3722 27.1165 31.3593 27.1168 31.3462 27.1175C30.6842 27.149 30.2698 27.7526 29.831 28.3917C29.3402 29.1066 28.8327 29.8457 27.9231 29.8457ZM31.1177 23.9377C30.7748 23.9377 30.4561 24.0079 30.1704 24.1466C28.1324 25.2095 26.7767 27.4547 26.9285 28.7509C26.977 29.1648 27.1794 29.4195 27.5301 29.5081C27.6668 29.5427 27.799 29.5602 27.9231 29.5602C28.6824 29.5602 29.126 28.9141 29.5956 28.2302C30.0545 27.5618 30.529 26.8706 31.3326 26.8324C32.0863 26.7963 32.6991 27.5313 33.2911 28.2409C33.7935 28.8431 34.3131 29.4658 34.8316 29.4658H34.8318C35.0895 29.4658 35.3458 29.3166 35.6153 29.0098C35.8955 28.6907 35.9991 28.339 35.9321 27.9345C35.6445 26.1976 32.3267 24.2408 32.1628 24.1453C32.1105 24.1225 31.6706 23.9377 31.1177 23.9377ZM19.9988 0.476685C19.9988 0.476685 18.8033 4.10028 20.9441 5.57504C23.0849 7.04966 25.9865 7.34914 27.4005 5.57511C25.6257 3.73141 23.9897 1.8867 19.9988 0.476685Z" fill="#9F353A"/>
<path d="M24.6053 6.93868H24.6052C23.3767 6.93861 22.0129 6.4845 20.8632 5.69265C19.9461 5.06078 19.4837 3.94596 19.5261 2.46876C19.5576 1.37029 19.8509 0.469785 19.8634 0.431949C19.8694 0.41389 19.8789 0.3972 19.8913 0.38286C19.9038 0.36852 19.919 0.356819 19.9361 0.348445C19.9532 0.340072 19.9717 0.335194 19.9907 0.334099C20.0097 0.333004 20.0287 0.335714 20.0466 0.342069C23.8774 1.69554 25.5912 3.48228 27.2484 5.21019L27.5037 5.47612C27.5277 5.50107 27.5418 5.5339 27.5435 5.56849C27.5451 5.60308 27.5341 5.63708 27.5125 5.66416C26.8478 6.49785 25.8424 6.93868 24.6053 6.93868ZM20.0931 0.661894C19.9065 1.3326 19.2306 4.22109 21.0253 5.45742C22.1284 6.21729 23.4332 6.65305 24.6052 6.65312C25.3779 6.65312 26.4448 6.46422 27.2094 5.58199L27.0422 5.40794C25.3544 3.64812 23.759 1.98474 20.0931 0.661894Z" fill="#AA0909"/>
<path d="M24.2871 9.47761C24.2871 9.47761 27.547 8.45881 28.6854 10.425C29.8237 12.3915 28.2554 14.368 28.2554 14.368C28.2554 14.368 26.0943 10.8919 24.2871 9.47761Z" fill="#F1EEE1"/>
<path d="M13.752 7.08101C13.7463 7.06759 16.1631 6.63718 17.9223 8.47889C19.6817 10.3208 19.6798 12.2906 19.6798 12.2906C19.6798 12.2906 15.3252 10.7232 13.752 7.08101Z" fill="#9F353A"/>
<path d="M19.678 12.4339C19.6617 12.4339 19.6454 12.4311 19.6296 12.4255C19.5855 12.4095 15.1986 10.7948 13.6191 7.1382C13.6097 7.1164 13.6059 7.09259 13.608 7.06894C13.6101 7.04528 13.618 7.02252 13.6311 7.00271C13.6682 6.94681 13.7079 6.93396 13.9146 6.91119C14.0786 6.89388 14.2434 6.88545 14.4083 6.88591C15.2252 6.88591 16.7813 7.08016 18.0239 8.38081C19.8022 10.2428 19.8209 12.2085 19.8209 12.2912C19.8208 12.3291 19.8057 12.3654 19.7789 12.3921C19.7522 12.4188 19.7159 12.4339 19.678 12.4339ZM13.9569 7.19367C15.3419 10.1749 18.6595 11.7166 19.5201 12.0748C19.4616 11.5224 19.1791 10.0038 17.8173 8.57813C16.6482 7.35416 15.1796 7.17147 14.4083 7.17147C14.2575 7.17094 14.1069 7.17835 13.9569 7.19367Z" fill="#AA0909"/>
<path d="M32.2891 15.2324C32.2891 15.2324 30.2362 17.4102 30.9088 19.8421C31.5814 22.2742 32.3555 22.9982 32.3555 22.9982C32.3555 22.9982 33.0485 19.4708 32.2891 15.2324Z" fill="#9F353A"/>
<path d="M32.3554 23.1405C32.3197 23.1405 32.2847 23.1271 32.2579 23.102C32.2251 23.0713 31.4467 22.3225 30.7711 19.8797C30.0851 17.3988 32.0991 15.2252 32.1852 15.1339C32.2033 15.1146 32.2265 15.1007 32.252 15.0939C32.2775 15.087 32.3045 15.0873 32.3298 15.0949C32.3552 15.1024 32.378 15.1169 32.3956 15.1366C32.4132 15.1563 32.425 15.1806 32.4296 15.2066C33.185 19.4227 32.5025 22.9896 32.4956 23.0252C32.4892 23.0577 32.4717 23.0869 32.4461 23.1079C32.4206 23.129 32.3885 23.1405 32.3554 23.1405ZM32.2001 15.5579C32.0147 15.7909 31.7258 16.1899 31.4704 16.6964C31.0923 17.4464 30.7118 18.5942 31.0463 19.8036C31.4997 21.4429 32.0018 22.2955 32.2663 22.6636C32.4057 21.7467 32.7465 18.8835 32.2001 15.5579Z" fill="#9F353A"/>
<path d="M18.334 6.5441C18.334 6.5441 21.9561 6.5441 25.6299 10.8907C28.3513 14.1102 29.6661 16.3238 30.2353 19.2732C28.9934 16.8414 26.2509 14.6866 23.2497 12.8663C20.2485 11.0459 18.5928 8.87261 18.334 6.5441Z" fill="#9F353A"/>
<path d="M30.2374 19.4159C30.2111 19.416 30.1853 19.4087 30.1628 19.3949C30.1404 19.3812 30.1222 19.3615 30.1102 19.3381C29.0425 17.2471 26.7748 15.1701 23.1779 12.9883C20.1831 11.1718 18.4597 8.94888 18.1943 6.55983C18.192 6.53987 18.194 6.51967 18.2001 6.50054C18.2062 6.4814 18.2163 6.46378 18.2297 6.44881C18.2431 6.43384 18.2595 6.42187 18.2778 6.41368C18.2962 6.40549 18.316 6.40126 18.3361 6.40128C18.3742 6.40128 19.2848 6.40756 20.6592 6.95469C21.9195 7.45641 23.8242 8.53061 25.7411 10.7984C28.6106 14.1933 29.825 16.4015 30.3738 19.2265C30.3812 19.2479 30.3834 19.2707 30.3803 19.2931C30.3771 19.3155 30.3687 19.3369 30.3556 19.3554C30.3426 19.3739 30.3253 19.389 30.3053 19.3996C30.2853 19.4101 30.263 19.4157 30.2404 19.4159H30.2374ZM18.4992 6.69647C18.816 8.93082 20.4809 11.0185 23.3259 12.7442C26.5114 14.6763 28.6718 16.5355 29.8949 18.4023C29.2775 16.0268 28.0512 13.9739 25.523 10.9828C22.3701 7.2526 19.2386 6.76087 18.4992 6.69647Z" fill="#9F353A"/>
<path d="M20.1115 28.733C20.0992 28.4644 19.696 28.2647 19.2109 28.2869C18.7257 28.3091 18.3424 28.5448 18.3547 28.8133C18.367 29.0819 18.7702 29.2816 19.2553 29.2594C19.7405 29.2372 20.1238 29.0015 20.1115 28.733Z" fill="#F1EEE1"/>
<path d="M22.2063 26.3086C22.4715 26.2654 22.6233 25.8418 22.5452 25.3626C22.4672 24.8833 22.1889 24.5298 21.9236 24.573C21.6584 24.6162 21.5066 25.0397 21.5847 25.519C21.6627 25.9983 21.941 26.3518 22.2063 26.3086Z" fill="#F1EEE1"/>
<path d="M16.7684 1.52883C17.2536 1.5067 17.6369 1.27097 17.6245 1.0024C17.6122 0.733909 17.2091 0.534232 16.7239 0.556506C16.2387 0.578565 15.8554 0.814365 15.8678 1.08286C15.8801 1.35129 16.2831 1.55103 16.7684 1.52883ZM13.4327 4.45645C13.5109 4.93597 13.7891 5.28928 14.0544 5.24609C14.3197 5.2029 14.4715 4.77927 14.3932 4.30003C14.3151 3.82051 14.0368 3.4672 13.7715 3.51039C13.5064 3.55358 13.3544 3.97714 13.4327 4.45645Z" fill="#9F353A"/>
<path d="M16.2377 29.3798C16.2377 29.3798 17.4332 25.7562 15.2924 24.2815C13.1516 22.8068 10.25 22.5074 8.83594 24.2814C10.6109 26.1251 12.5516 28.2876 16.2377 29.3798Z" fill="white"/>
</svg>
