<svg width="28" height="30" viewBox="0 0 28 30" fill="none" xmlns="http://www.w3.org/2000/svg">
<path d="M15.3191 18.0543C15.1391 17.944 15.0067 17.7705 14.9479 17.5677C14.8892 17.3649 14.9083 17.1475 15.0015 16.958C15.0506 16.8572 15.0793 16.7477 15.086 16.6358C15.0927 16.5239 15.0773 16.4118 15.0405 16.3058C15.0038 16.1999 14.9466 16.1022 14.872 16.0185C14.7975 15.9347 14.7071 15.8665 14.6062 15.8177L14.6008 15.8145C14.4559 15.7449 14.3337 15.6358 14.2481 15.4998C14.1626 15.3637 14.1172 15.2063 14.1172 15.0456C14.1172 14.8849 14.1626 14.7275 14.2481 14.5915C14.3337 14.4554 14.4559 14.3464 14.6008 14.2768L14.6062 14.274C14.7071 14.2252 14.7974 14.157 14.8719 14.0732C14.9464 13.9894 15.0036 13.8918 15.0403 13.7859C15.0771 13.68 15.0925 13.5679 15.0859 13.456C15.0792 13.3441 15.0505 13.2346 15.0015 13.1338C14.9353 12.9871 14.9101 12.8253 14.9286 12.6655C14.947 12.5057 15.0085 12.3539 15.1063 12.2262C15.2042 12.0985 15.3349 11.9998 15.4844 11.9405C15.6339 11.8811 15.7967 11.8634 15.9555 11.8892L16.0125 11.8958C16.2387 11.925 16.4677 11.8702 16.6562 11.7418C16.8446 11.6134 16.9794 11.4203 17.035 11.1991L17.0442 11.1562C17.0864 11.0006 17.1673 10.8582 17.2793 10.7422C17.3914 10.6263 17.531 10.5406 17.6851 10.4932C17.8392 10.4458 18.0028 10.4381 18.1607 10.471C18.3185 10.5038 18.4655 10.5761 18.5879 10.6811L18.6487 10.7321C18.8249 10.8787 19.0467 10.9589 19.2759 10.9589C19.505 10.9589 19.7269 10.8787 19.903 10.7321L19.9638 10.6811C20.0862 10.5761 20.2332 10.5038 20.3911 10.471C20.5489 10.4381 20.7125 10.4458 20.8666 10.4932C21.0207 10.5406 21.1603 10.6263 21.2724 10.7422C21.3845 10.8582 21.4654 11.0006 21.5075 11.1562L21.5168 11.1991C21.5723 11.4203 21.7071 11.6134 21.8956 11.7418C22.084 11.8702 22.3131 11.925 22.5392 11.8958L22.5962 11.8892C22.755 11.8634 22.9178 11.8811 23.0674 11.9405C23.2169 11.9998 23.3475 12.0985 23.4454 12.2262C23.5433 12.3539 23.6047 12.5057 23.6232 12.6655C23.6416 12.8253 23.6164 12.9871 23.5503 13.1338C23.5012 13.2346 23.4726 13.3441 23.4659 13.456C23.4592 13.5679 23.4747 13.68 23.5114 13.7859C23.5481 13.8918 23.6054 13.9894 23.6799 14.0732C23.7544 14.157 23.8446 14.2252 23.9455 14.274L23.951 14.2768C24.0958 14.3464 24.2181 14.4554 24.3036 14.5915C24.3892 14.7275 24.4345 14.8849 24.4345 15.0456C24.4345 15.2063 24.3892 15.3637 24.3036 15.4998C24.2181 15.6358 24.0958 15.7449 23.951 15.8145L23.9455 15.8177C23.8446 15.8665 23.7543 15.9347 23.6797 16.0185C23.6052 16.1022 23.5479 16.1999 23.5112 16.3058C23.4745 16.4118 23.459 16.5239 23.4657 16.6358C23.4724 16.7477 23.5011 16.8572 23.5503 16.958C23.6435 17.1475 23.6626 17.3649 23.6038 17.5677C23.545 17.7705 23.4127 17.944 23.2326 18.0543H15.3191Z" fill="#F1EEE1"/>
<path d="M20.5181 18.3594L19.1259 18.1965L19.62 17.7507L20.125 17.0074C20.4581 16.5204 20.6393 15.9456 20.6457 15.3556C20.6523 15.0586 20.5756 14.7657 20.4244 14.51C20.2731 14.2543 20.0534 14.046 19.79 13.9086C19.5468 13.7789 19.2755 13.7109 18.9999 13.7104C18.782 13.7082 18.5689 13.7743 18.3905 13.8995C18.2121 14.0246 18.0773 14.2025 18.0052 14.4081L17.9406 14.5987C17.9236 14.6479 17.9168 14.6999 17.9204 14.7518C17.924 14.8037 17.9381 14.8543 17.9618 14.9006C18.0103 14.9902 18.0887 15.0599 18.1834 15.0975C18.2781 15.1352 18.383 15.1383 18.4798 15.1064L19.3485 14.8235L19.6857 15.8552L18.817 16.1386C18.4744 16.2489 18.1038 16.2347 17.7707 16.0984C17.4376 15.9621 17.1633 15.7125 16.9963 15.3936C16.907 15.2178 16.8538 15.0258 16.8397 14.8291C16.8256 14.6323 16.851 14.4347 16.9143 14.2479L16.9784 14.0584C17.1235 13.6383 17.3965 13.2741 17.759 13.0169C18.1215 12.7598 18.5555 12.6225 18.9999 12.6244C19.4535 12.6251 19.9001 12.737 20.3004 12.9502C20.7412 13.1808 21.1087 13.53 21.3616 13.9584C21.6145 14.3868 21.7427 14.8773 21.7317 15.3746C21.7228 16.1758 21.4772 16.9564 21.0258 17.6183L20.5181 18.3594Z" fill="#9F353A"/>
<path d="M2.17188 18.0543V9.90948H5.42979H11.9456H15.2035V18.0543H2.17188Z" fill="#9F353A"/>
<path d="M0 18.0543V15.8824C1.42504e-05 15.2534 0.182059 14.638 0.524161 14.1103C0.866262 13.5825 1.3538 13.1651 1.92791 12.9084C2.50203 12.6516 3.13819 12.5665 3.7596 12.6634C4.38101 12.7602 4.9611 13.0348 5.42986 13.4541V18.0543H0Z" fill="#F1EEE1"/>
<path d="M5.42978 15.3394C4.70973 15.3394 4.01918 15.6254 3.51003 16.1345C3.00088 16.6437 2.71484 17.3342 2.71484 18.0543H5.42978V15.3394Z" fill="#9F353A"/>
<path d="M0 18.0543H23.8914V23.4842C23.8914 25.2123 23.2049 26.8696 21.983 28.0916C20.761 29.3135 19.1037 30 17.3756 30H6.51584C4.78773 30 3.1304 29.3135 1.90844 28.0916C0.686488 26.8696 0 25.2123 0 23.4842V18.0543Z" fill="#9F353A"/>
<path d="M23.8914 20.2263H0V22.9412H23.8914V20.2263Z" fill="#F1EEE1"/>
<path d="M1.62891 2.98645V5.1584H5.42981H11.9456H27.1493V2.98645H1.62891Z" fill="#9F353A"/>
<path d="M27.1493 2.71493H1.62891V0.542986L27.1493 0V2.71493Z" fill="#9F353A"/>
<path d="M11.9455 2.85071H5.42969V18.0543H11.9455V2.85071Z" fill="#F1EEE1"/>
<path d="M10.3164 2.85071H9.23047V18.0543H10.3164V2.85071Z" fill="white"/>
<path d="M8.14457 2.85071H7.05859V18.0543H8.14457V2.85071Z" fill="white"/>
</svg>
