<svg width="33" height="30" viewBox="0 0 33 30" fill="none" xmlns="http://www.w3.org/2000/svg">
<path d="M14.3609 10.2818L11.6665 4.44445L12.5415 2.98612C13.0595 2.12271 13.3331 1.13474 13.3331 0.127847V0H5.55534V0.127847C5.55534 1.13474 5.82898 2.12271 6.34701 2.98612L7.22201 4.44445L4.52756 10.2818C4.10656 11.1942 3.88858 12.1871 3.88867 13.192V21.5278C3.88867 22.4487 4.2545 23.3319 4.90566 23.9831C5.55683 24.6342 6.44001 25.0001 7.3609 25.0001H11.5276C12.4485 25.0001 13.3316 24.6342 13.9828 23.9831C14.634 23.3319 14.9998 22.4487 14.9998 21.5278V13.192C14.9999 12.1871 14.7819 11.1942 14.3609 10.2818Z" fill="#9F353A"/>
<path d="M12.5847 14.3535C9.18189 15.048 10.1263 19.6748 6.72355 20.3692C5.55605 20.6075 4.67792 20.2193 3.89062 19.6344V21.528C3.89062 22.4489 4.25645 23.3321 4.90762 23.9832C5.55879 24.6344 6.44196 25.0002 7.36285 25.0002H11.5295C12.4504 25.0002 13.3336 24.6344 13.9848 23.9832C14.6359 23.3321 15.0018 22.4489 15.0018 21.528V14.8057C14.3189 14.3882 13.5508 14.1563 12.5847 14.3535Z" fill="#F1EEE1"/>
<path d="M11.6658 4.44445H7.22136L6.34636 2.98612C5.82833 2.12271 5.55468 1.13474 5.55469 0.127847V0H13.3325V0.127847C13.3325 1.13474 13.0588 2.12271 12.5408 2.98612L11.6658 4.44445Z" fill="#F1EEE1"/>
<path d="M7.77691 9.44461C7.95474 9.54489 8.10458 9.68814 8.21275 9.86128C8.28979 9.9867 8.33118 10.1308 8.33247 10.2779C8.33228 10.4251 8.29142 10.5693 8.21442 10.6946C8.106 10.8681 7.95552 11.0115 7.77691 11.1113C7.59831 11.0115 7.44782 10.8681 7.33941 10.6946C7.26241 10.5693 7.22155 10.4251 7.22136 10.2779C7.22262 10.1308 7.26399 9.98671 7.34101 9.86128C7.4492 9.68813 7.59907 9.54488 7.77691 9.44461ZM7.77691 12.2224C7.95474 12.3227 8.10458 12.4659 8.21275 12.6391C8.28979 12.7645 8.33118 12.9085 8.33247 13.0557C8.33228 13.2028 8.29142 13.347 8.21442 13.4724C8.106 13.6459 7.95552 13.7892 7.77691 13.8891C7.59831 13.7892 7.44782 13.6459 7.33941 13.4724C7.26241 13.347 7.22155 13.2028 7.22136 13.0557C7.22262 12.9085 7.26399 12.7645 7.34101 12.6391C7.4492 12.4659 7.59907 12.3227 7.77691 12.2224ZM5.55469 11.6668C5.65496 11.489 5.79822 11.3392 5.97136 11.231C6.09678 11.154 6.24083 11.1126 6.38802 11.1113C6.53514 11.1115 6.67934 11.1523 6.80469 11.2293C6.97821 11.3377 7.12154 11.4882 7.22136 11.6668C7.12154 11.8454 6.97821 11.9959 6.80469 12.1043C6.67934 12.1813 6.53514 12.2222 6.38802 12.2224C6.24084 12.2211 6.09678 12.1798 5.97136 12.1027C5.79821 11.9946 5.65495 11.8447 5.55469 11.6668ZM8.33247 11.6668C8.43275 11.489 8.576 11.3392 8.74914 11.231C8.87456 11.154 9.01862 11.1126 9.16581 11.1113C9.31292 11.1115 9.45712 11.1523 9.58247 11.2293C9.756 11.3377 9.89932 11.4882 9.99914 11.6668C9.89932 11.8454 9.756 11.9959 9.58247 12.1043C9.45712 12.1813 9.31292 12.2222 9.16581 12.2224C9.01862 12.2211 8.87457 12.1798 8.74914 12.1027C8.57599 11.9946 8.43274 11.8447 8.33247 11.6668Z" fill="#F1EEE1"/>
<path d="M1.38889 25.0001H30.8334C31.2018 25.0001 31.555 25.1464 31.8155 25.4069C32.076 25.6673 32.2223 26.0206 32.2223 26.389V27.7778H0V26.389C0 26.0206 0.146329 25.6673 0.406797 25.4069C0.667265 25.1464 1.02053 25.0001 1.38889 25.0001Z" fill="#9F353A"/>
<path d="M4.99936 27.7778H1.66602L2.22157 30H4.4438L4.99936 27.7778Z" fill="#9F353A"/>
<path d="M30.556 27.7778H27.2227L27.7782 30H30.0004L30.556 27.7778Z" fill="#9F353A"/>
<path d="M23.8885 22.7774H17.2218L12.7773 17.2218V16.6663H28.3329V17.2218L23.8885 22.7774Z" fill="#9F353A"/>
<path d="M23.8893 22.7778H17.2227V25H23.8893V22.7778Z" fill="#F1EEE1"/>
<path d="M20.625 10.625C22.3509 10.625 23.75 9.2259 23.75 7.50001C23.75 5.77411 22.3509 4.375 20.625 4.375C18.8991 4.375 17.5 5.77411 17.5 7.50001C17.5 9.2259 18.8991 10.625 20.625 10.625Z" fill="#9F353A"/>
</svg>
