<svg width="38" height="30" viewBox="0 0 38 30" fill="none" xmlns="http://www.w3.org/2000/svg">
<path d="M10.3233 26.6904V28.3115C10.3233 29.1593 9.63606 29.8465 8.78825 29.8465H6.44715C5.59935 29.8465 4.91211 29.1593 4.91211 28.3115V26.6904H10.3233Z" fill="#9F353A"/>
<path d="M8.78746 30H6.44636C5.51528 30 4.75781 29.2425 4.75781 28.3115V26.6904C4.75781 26.6497 4.77399 26.6106 4.80277 26.5818C4.83156 26.553 4.87061 26.5369 4.91132 26.5369H10.3225C10.3632 26.5369 10.4023 26.553 10.431 26.5818C10.4598 26.6106 10.476 26.6497 10.476 26.6904V28.3115C10.476 29.2425 9.71854 30 8.78746 30ZM5.06482 26.8439V28.3115C5.06482 29.0732 5.6846 29.693 6.44636 29.693H8.78746C9.54922 29.693 10.169 29.0732 10.169 28.3115V26.8439H5.06482ZM32.6652 26.6904V28.3115C32.6652 29.1593 31.9779 29.8465 31.1301 29.8465H28.789C27.9412 29.8465 27.254 29.1593 27.254 28.3115V26.6904H32.6652Z" fill="#9F353A"/>
<path d="M31.1312 30H28.7901C27.859 30 27.1016 29.2425 27.1016 28.3115V26.6904C27.1016 26.6497 27.1177 26.6106 27.1465 26.5818C27.1753 26.553 27.2144 26.5369 27.2551 26.5369H32.6663C32.707 26.5369 32.746 26.553 32.7748 26.5818C32.8036 26.6106 32.8198 26.6497 32.8198 26.6904V28.3115C32.8198 29.2425 32.0623 30 31.1312 30ZM27.4086 26.8439V28.3115C27.4086 29.0732 28.0283 29.693 28.7901 29.693H31.1312C31.893 29.693 32.5127 29.0732 32.5127 28.3115V26.8439H27.4086Z" fill="#9F353A"/>
<path d="M37.3791 25.1553C37.3791 26.0031 36.6919 26.6903 35.8441 26.6903H1.68934C0.841537 26.6903 0.154297 26.0031 0.154297 25.1553V24.0408C0.154297 23.193 0.841537 22.5057 1.68934 22.5057H35.8441C36.6919 22.5057 37.3791 23.193 37.3791 24.0408V25.1553Z" fill="#9F353A"/>
<path d="M35.8433 26.8439H1.68855C0.757468 26.8439 0 26.0864 0 25.1553V24.0408C0 23.1097 0.757468 22.3522 1.68855 22.3522H35.8433C36.7744 22.3522 37.5318 23.1097 37.5318 24.0408V25.1553C37.5318 26.0864 36.7744 26.8439 35.8433 26.8439ZM1.68855 22.6592C0.926783 22.6592 0.307009 23.279 0.307009 24.0408V25.1553C0.307009 25.9171 0.926783 26.5368 1.68855 26.5368H35.8433C36.6051 26.5368 37.2248 25.9171 37.2248 25.1553V24.0408C37.2248 23.279 36.6051 22.6592 35.8433 22.6592H1.68855Z" fill="#F1EEE1"/>
<path d="M12.8487 18.5572C12.8487 20.6767 11.1305 22.3948 9.01106 22.3948H5.46457C3.34513 22.3948 1.62695 20.6767 1.62695 18.5572V15.0107C1.62695 12.8913 3.34513 11.1731 5.46457 11.1731H9.01106C11.1305 11.1731 12.8487 12.8913 12.8487 15.0107V18.5572Z" fill="#9F353A"/>
<path d="M12.0292 18.2982C12.0292 20.1079 10.5621 21.5751 8.75239 21.5751H5.72413C3.91431 21.5751 2.44727 20.1079 2.44727 18.2982V15.2699C2.44727 13.4602 3.91438 11.9931 5.72413 11.9931H8.75239C10.5622 11.9931 12.0292 13.4602 12.0292 15.2699V18.2982Z" fill="#9F353A"/>
<path d="M8.75159 21.7286H5.72333C3.83177 21.7286 2.29297 20.1898 2.29297 18.2983V15.27C2.29297 13.3785 3.83185 11.8397 5.72333 11.8397H8.75159C10.6432 11.8397 12.182 13.3785 12.182 15.27V18.2983C12.182 20.1898 10.6431 21.7286 8.75159 21.7286ZM5.72333 12.1466C4.00109 12.1466 2.59998 13.5478 2.59998 15.2699V18.2982C2.59998 20.0204 4.00109 21.4216 5.72333 21.4216H8.75159C10.4738 21.4216 11.8749 20.0204 11.8749 18.2982V15.2699C11.8749 13.5478 10.4738 12.1466 8.75159 12.1466H5.72333Z" fill="#F1EEE1"/>
<path d="M10.1906 17.7172C10.1906 18.8325 9.28641 19.7367 8.17105 19.7367H6.30466C5.1893 19.7367 4.28516 18.8325 4.28516 17.7172V15.8509C4.28516 14.7355 5.1893 13.8314 6.30466 13.8314H8.17097C9.28633 13.8314 10.1905 14.7355 10.1905 15.8509V17.7172H10.1906Z" fill="#F1EEE1"/>
<path d="M8.17213 19.8903H6.30582C5.10764 19.8903 4.13281 18.9154 4.13281 17.7173V15.851C4.13281 14.6528 5.10764 13.6779 6.30582 13.6779H8.17213C9.37031 13.6779 10.3451 14.6528 10.3451 15.851V17.7173C10.3452 18.9154 9.37039 19.8903 8.17213 19.8903ZM6.30582 13.9848C5.27688 13.9848 4.43982 14.8219 4.43982 15.8508V17.7171C4.43982 18.7461 5.27696 19.5831 6.30582 19.5831H8.17213C9.20107 19.5831 10.0381 18.7461 10.0381 17.7171V15.8508C10.0381 14.8219 9.20099 13.9848 8.17213 13.9848H6.30582Z" fill="#AA0909"/>
<path d="M4.93881 19.2846C4.92576 19.2846 4.91292 19.2814 4.90142 19.2752C4.88992 19.269 4.88012 19.2601 4.87289 19.2493C4.86565 19.2384 4.86121 19.2259 4.85995 19.2129C4.85869 19.1999 4.86065 19.1868 4.86566 19.1748C4.88193 19.1357 6.53011 15.2528 9.63205 14.4149C9.64211 14.4121 9.6526 14.4114 9.66293 14.4128C9.67325 14.4141 9.68322 14.4175 9.69225 14.4227C9.70128 14.4278 9.7092 14.4348 9.71555 14.443C9.72191 14.4513 9.72658 14.4607 9.7293 14.4707C9.73201 14.4808 9.73272 14.4913 9.73139 14.5016C9.73005 14.5119 9.72669 14.5219 9.7215 14.5309C9.71631 14.54 9.7094 14.5479 9.70115 14.5542C9.6929 14.5606 9.68348 14.5653 9.67342 14.568C6.64724 15.3855 5.02807 19.1974 5.01211 19.2358C4.99936 19.2663 4.96989 19.2846 4.93881 19.2846ZM7.23708 19.8303C7.22417 19.8303 7.21146 19.8272 7.20005 19.8211C7.18865 19.8151 7.17889 19.8063 7.17163 19.7957C7.16437 19.785 7.15982 19.7727 7.15839 19.7599C7.15695 19.747 7.15867 19.7341 7.16339 19.722C7.17322 19.6969 7.41031 19.0999 7.89223 18.4341C8.33939 17.8164 9.08872 17.0268 10.1195 16.7728C10.1296 16.7703 10.1402 16.7697 10.1506 16.7712C10.1609 16.7727 10.1709 16.7763 10.1798 16.7817C10.1888 16.787 10.1966 16.7941 10.2029 16.8026C10.2091 16.811 10.2136 16.8205 10.2161 16.8307C10.2186 16.8409 10.219 16.8514 10.2174 16.8618C10.2159 16.8721 10.2122 16.882 10.2068 16.891C10.2013 16.8999 10.1941 16.9077 10.1857 16.9138C10.1772 16.92 10.1676 16.9244 10.1574 16.9268C8.26886 17.3921 7.32043 19.7562 7.31107 19.7801C7.30518 19.7949 7.29498 19.8076 7.28179 19.8166C7.2686 19.8255 7.25302 19.8303 7.23708 19.8303ZM4.28442 16.6001C4.27231 16.6001 4.26037 16.5973 4.2495 16.592C4.23863 16.5866 4.22912 16.5789 4.2217 16.5693C4.21429 16.5597 4.20916 16.5486 4.20672 16.5367C4.20427 16.5249 4.20457 16.5126 4.20759 16.5009C4.21296 16.4801 4.76995 14.4208 6.94066 13.7555C6.96044 13.7504 6.98142 13.7531 6.99925 13.7631C7.01707 13.773 7.03036 13.7895 7.03635 13.809C7.04234 13.8286 7.04057 13.8497 7.03141 13.8679C7.02225 13.8862 7.00641 13.9002 6.98717 13.9071C4.9002 14.5468 4.36624 16.5208 4.36109 16.5406C4.35188 16.5764 4.31965 16.6001 4.28442 16.6001ZM4.31711 18.1584C4.30409 18.1584 4.29127 18.1552 4.27979 18.1491C4.2683 18.143 4.25851 18.1341 4.25126 18.1233C4.24402 18.1125 4.23955 18.1 4.23825 18.0871C4.23695 18.0741 4.23886 18.061 4.24382 18.049C4.25824 18.014 5.71569 14.5419 8.66897 13.8214C8.6894 13.8164 8.71098 13.8198 8.72895 13.8307C8.74692 13.8416 8.75981 13.8593 8.76479 13.8797C8.76977 13.9001 8.76642 13.9217 8.75549 13.9397C8.74456 13.9577 8.72694 13.9705 8.7065 13.9755C5.83243 14.6766 4.40461 18.075 4.39049 18.1092C4.3779 18.1399 4.34828 18.1584 4.31711 18.1584ZM5.9712 19.7883C5.95868 19.7883 5.94634 19.7853 5.93519 19.7796C5.92404 19.7739 5.9144 19.7656 5.90705 19.7555C5.89971 19.7453 5.89486 19.7336 5.89291 19.7212C5.89096 19.7088 5.89196 19.6962 5.89583 19.6843C5.9078 19.6477 7.12632 16.0222 10.1775 15.5405C10.1978 15.5381 10.2183 15.5437 10.2347 15.556C10.251 15.5684 10.2619 15.5867 10.2652 15.6069C10.2684 15.6272 10.2636 15.6479 10.2519 15.6647C10.2401 15.6815 10.2224 15.6932 10.2022 15.6972C7.2459 16.1639 6.05831 19.6979 6.04665 19.7336C6.04142 19.7495 6.03131 19.7633 6.01777 19.7732C6.00422 19.783 5.98793 19.7883 5.9712 19.7883ZM8.50464 19.7883C8.49197 19.7883 8.47949 19.7853 8.46823 19.7795C8.45697 19.7737 8.44727 19.7652 8.43994 19.7549C8.43261 19.7446 8.42786 19.7326 8.4261 19.7201C8.42434 19.7076 8.42561 19.6948 8.42981 19.6828C8.44915 19.6273 8.9181 18.3194 10.1302 17.8789C10.14 17.8753 10.1504 17.8737 10.1608 17.8741C10.1712 17.8746 10.1814 17.8771 10.1909 17.8815C10.2003 17.8859 10.2088 17.8921 10.2158 17.8998C10.2228 17.9075 10.2283 17.9165 10.2318 17.9263C10.2354 17.9361 10.2369 17.9465 10.2365 17.9569C10.236 17.9673 10.2335 17.9775 10.2291 17.9869C10.2247 17.9964 10.2185 18.0048 10.2108 18.0119C10.2031 18.0189 10.1941 18.0243 10.1844 18.0279C9.04237 18.443 8.584 19.7222 8.57947 19.7351C8.57407 19.7506 8.56396 19.7641 8.55055 19.7736C8.53714 19.7832 8.52109 19.7883 8.50464 19.7883Z" fill="#9F353A"/>
<path d="M18.7178 7.4228C18.7178 9.54224 16.9996 11.2604 14.8802 11.2604H11.3337C9.21427 11.2604 7.49609 9.54224 7.49609 7.4228V3.87631C7.49609 1.75687 9.21427 0.0386963 11.3337 0.0386963H14.8802C16.9996 0.0386963 18.7178 1.75687 18.7178 3.87631V7.4228Z" fill="#9F353A"/>
<path d="M17.8984 7.16376C17.8984 8.9735 16.4313 10.4406 14.6215 10.4406H11.5933C9.78345 10.4406 8.31641 8.9735 8.31641 7.16376V4.1355C8.31641 2.32576 9.78353 0.858643 11.5933 0.858643H14.6215C16.4313 0.858643 17.8984 2.32576 17.8984 4.1355V7.16376Z" fill="#9F353A"/>
<path d="M14.6207 10.5942H11.5925C9.70091 10.5942 8.16211 9.05531 8.16211 7.16383V4.13556C8.16211 2.24401 9.70099 0.7052 11.5925 0.7052H14.6207C16.5123 0.7052 18.0511 2.24408 18.0511 4.13556V7.16383C18.0511 9.05531 16.5122 10.5942 14.6207 10.5942ZM11.5925 1.01213C9.87023 1.01213 8.46912 2.41332 8.46912 4.13549V7.16375C8.46912 8.88591 9.87023 10.2871 11.5925 10.2871H14.6207C16.343 10.2871 17.7441 8.88591 17.7441 7.16375V4.13549C17.7441 2.41332 16.343 1.01213 14.6207 1.01213H11.5925Z" fill="#F1EEE1"/>
<path d="M16.0597 6.58274C16.0597 7.69811 15.1555 8.60225 14.0402 8.60225H12.1738C11.0584 8.60225 10.1543 7.69811 10.1543 6.58274V4.71643C10.1543 3.60107 11.0584 2.69693 12.1738 2.69693H14.0401C15.1555 2.69693 16.0596 3.60107 16.0596 4.71643V6.58274H16.0597Z" fill="#F1EEE1"/>
<path d="M14.0393 8.75581H12.173C10.9748 8.75581 10 7.78098 10 6.5828V4.7165C10 3.51832 10.9748 2.54349 12.173 2.54349H14.0393C15.2375 2.54349 16.2123 3.51832 16.2123 4.7165V6.5828C16.2124 7.78091 15.2376 8.75581 14.0393 8.75581ZM12.173 2.85034C11.1441 2.85034 10.307 3.6874 10.307 4.71634V6.58265C10.307 7.61159 11.1441 8.44865 12.173 8.44865H14.0393C15.0683 8.44865 15.9053 7.61159 15.9053 6.58265V4.71634C15.9053 3.6874 15.0682 2.85034 14.0393 2.85034H12.173Z" fill="#AA0909"/>
<path d="M10.8079 8.15017C10.7949 8.15015 10.7821 8.14691 10.7706 8.14074C10.7591 8.13457 10.7493 8.12566 10.742 8.1148C10.7348 8.10394 10.7304 8.09146 10.7291 8.07847C10.7278 8.06548 10.7298 8.05239 10.7348 8.04034C10.7511 8.00119 12.3993 4.11837 15.5012 3.28039C15.5112 3.27768 15.5217 3.27697 15.5321 3.27831C15.5424 3.27964 15.5524 3.283 15.5614 3.28819C15.5704 3.29338 15.5783 3.3003 15.5847 3.30855C15.5911 3.31679 15.5957 3.32622 15.5984 3.33627C15.6012 3.34632 15.6019 3.35681 15.6005 3.36714C15.5992 3.37747 15.5958 3.38743 15.5906 3.39646C15.5855 3.40549 15.5785 3.41341 15.5703 3.41977C15.562 3.42613 15.5526 3.4308 15.5426 3.43351C12.5164 4.251 10.8972 8.0629 10.8812 8.10136C10.8685 8.13183 10.839 8.15017 10.8079 8.15017ZM13.1062 8.69588C13.0933 8.69586 13.0806 8.69269 13.0692 8.68665C13.0578 8.6806 13.048 8.67186 13.0408 8.66119C13.0335 8.65052 13.029 8.63823 13.0275 8.62541C13.0261 8.61258 13.0278 8.59959 13.0325 8.58758C13.0424 8.56248 13.2794 7.96543 13.7614 7.29968C14.2085 6.68198 14.9579 5.89235 15.9886 5.63838C15.9988 5.63579 16.0093 5.63524 16.0197 5.63675C16.0301 5.63827 16.04 5.64182 16.049 5.6472C16.058 5.65258 16.0658 5.65968 16.072 5.6681C16.0782 5.67652 16.0827 5.68608 16.0852 5.69625C16.0877 5.70641 16.0882 5.71697 16.0866 5.72731C16.085 5.73765 16.0814 5.74758 16.0759 5.75651C16.0705 5.76544 16.0633 5.77321 16.0548 5.77936C16.0463 5.78551 16.0367 5.78992 16.0266 5.79234C14.138 6.25761 13.1896 8.62174 13.1802 8.64561C13.1743 8.66043 13.1641 8.67314 13.1509 8.68211C13.1377 8.69107 13.1222 8.69587 13.1062 8.69588ZM10.1536 5.46561C10.1415 5.4656 10.1295 5.46283 10.1186 5.4575C10.1078 5.45217 10.0983 5.44442 10.0908 5.43485C10.0834 5.42528 10.0783 5.41414 10.0759 5.40228C10.0734 5.39043 10.0737 5.37817 10.0767 5.36644C10.0821 5.34564 10.6391 3.28638 12.8098 2.62101C12.8296 2.61591 12.8506 2.61863 12.8684 2.62861C12.8862 2.63859 12.8995 2.65505 12.9055 2.67458C12.9115 2.69411 12.9097 2.7152 12.9006 2.73345C12.8914 2.75171 12.8755 2.76573 12.8563 2.7726C10.7693 3.41233 10.2354 5.38632 10.2302 5.40612C10.221 5.44197 10.1888 5.46561 10.1536 5.46561ZM10.1863 7.02398C10.1732 7.02398 10.1604 7.02077 10.1489 7.01464C10.1374 7.0085 10.1276 6.99963 10.1204 6.98882C10.1132 6.978 10.1087 6.96556 10.1074 6.95261C10.1061 6.93965 10.108 6.92658 10.113 6.91454C10.1274 6.87954 11.5848 3.40742 14.5381 2.68695C14.5585 2.68197 14.5801 2.68531 14.5981 2.69625C14.6161 2.70718 14.629 2.7248 14.6339 2.74524C14.6389 2.76568 14.6356 2.78725 14.6246 2.80522C14.6137 2.8232 14.5961 2.83609 14.5756 2.84106C11.7016 3.54212 10.2738 6.94055 10.2596 6.97479C10.247 7.00549 10.2174 7.02398 10.1863 7.02398ZM11.8403 8.65382C11.8278 8.65379 11.8155 8.6508 11.8043 8.6451C11.7932 8.63939 11.7835 8.63114 11.7762 8.621C11.7688 8.61086 11.764 8.59912 11.762 8.58675C11.7601 8.57438 11.7611 8.56173 11.765 8.54982C11.7769 8.51321 12.9955 4.88774 16.0466 4.40604C16.067 4.40363 16.0875 4.40921 16.1038 4.42159C16.1202 4.43397 16.1311 4.45219 16.1343 4.47245C16.1375 4.49271 16.1327 4.51342 16.121 4.53024C16.1093 4.54706 16.0915 4.55869 16.0714 4.56269C13.115 5.02942 11.9275 8.56348 11.9158 8.59917C11.9106 8.61506 11.9005 8.62889 11.8869 8.6387C11.8734 8.64851 11.8571 8.6538 11.8403 8.65382ZM14.3738 8.65382C14.3611 8.65383 14.3486 8.65081 14.3374 8.64501C14.3261 8.6392 14.3164 8.63078 14.3091 8.62045C14.3018 8.61012 14.297 8.59818 14.2952 8.58564C14.2935 8.57309 14.2947 8.56031 14.2989 8.54836C14.3183 8.49287 14.7872 7.18493 15.9993 6.74445C16.0091 6.74086 16.0195 6.73924 16.0299 6.73968C16.0403 6.74013 16.0505 6.74262 16.06 6.74703C16.0694 6.75144 16.0779 6.75767 16.0849 6.76537C16.092 6.77307 16.0974 6.78208 16.1009 6.79189C16.1045 6.80167 16.1061 6.81205 16.1056 6.82245C16.1052 6.83285 16.1027 6.84306 16.0983 6.85249C16.0939 6.86192 16.0876 6.87039 16.08 6.87741C16.0723 6.88444 16.0633 6.88988 16.0535 6.89343C14.9115 7.30851 14.4531 8.58773 14.4486 8.60063C14.4432 8.61617 14.4331 8.62964 14.4197 8.63917C14.4063 8.6487 14.3902 8.65382 14.3738 8.65382Z" fill="#9F353A"/>
<path d="M35.9873 18.6286C35.9873 20.748 34.2692 22.4662 32.1497 22.4662H28.6032C26.4838 22.4662 24.7656 20.748 24.7656 18.6286V15.0821C24.7656 12.9627 26.4838 11.2445 28.6032 11.2445H32.1497C34.2692 11.2445 35.9873 12.9627 35.9873 15.0821V18.6286Z" fill="#9F353A"/>
<path d="M35.1679 18.3696C35.1679 20.1793 33.7008 21.6464 31.8911 21.6464H28.8628C27.053 21.6464 25.5859 20.1793 25.5859 18.3696V15.3413C25.5859 13.5316 27.0531 12.0645 28.8628 12.0645H31.8911C33.7009 12.0645 35.1679 13.5316 35.1679 15.3413V18.3696Z" fill="#9F353A"/>
<path d="M31.8903 21.8H28.862C26.9704 21.8 25.4316 20.2611 25.4316 18.3696V15.3414C25.4316 13.4498 26.9705 11.911 28.862 11.911H31.8903C33.7818 11.911 35.3206 13.4499 35.3206 15.3414V18.3696C35.3206 20.2611 33.7817 21.8 31.8903 21.8ZM28.862 12.2179C27.1398 12.2179 25.7386 13.6191 25.7386 15.3413V18.3696C25.7386 20.0917 27.1398 21.4929 28.862 21.4929H31.8903C33.6125 21.4929 35.0136 20.0917 35.0136 18.3696V15.3413C35.0136 13.6191 33.6125 12.2179 31.8903 12.2179H28.862Z" fill="#F1EEE1"/>
<path d="M33.3292 17.7886C33.3292 18.9039 32.4251 19.8081 31.3097 19.8081H29.4433C28.328 19.8081 27.4238 18.9039 27.4238 17.7886V15.9222C27.4238 14.8069 28.328 13.9027 29.4433 13.9027H31.3096C32.425 13.9027 33.3291 14.8069 33.3291 15.9222V17.7886H33.3292Z" fill="#F1EEE1"/>
<path d="M31.3088 19.9617H29.4425C28.2444 19.9617 27.2695 18.9868 27.2695 17.7886V15.9223C27.2695 14.7242 28.2444 13.7493 29.4425 13.7493H31.3088C32.507 13.7493 33.4819 14.7242 33.4819 15.9223V17.7886C33.4819 18.9867 32.5071 19.9617 31.3088 19.9617ZM29.4425 14.0562C28.4136 14.0562 27.5765 14.8932 27.5765 15.9222V17.7885C27.5765 18.8174 28.4137 19.6545 29.4425 19.6545H31.3088C32.3378 19.6545 33.1748 18.8174 33.1748 17.7885V15.9222C33.1748 14.8932 32.3377 14.0562 31.3088 14.0562H29.4425Z" fill="#AA0909"/>
<path d="M28.0775 19.356C28.0644 19.356 28.0516 19.3527 28.0401 19.3465C28.0286 19.3404 28.0188 19.3315 28.0116 19.3206C28.0043 19.3097 27.9999 19.2973 27.9986 19.2843C27.9974 19.2713 27.9993 19.2582 28.0043 19.2461C28.0206 19.207 29.6688 15.3242 32.7707 14.4862C32.7808 14.4835 32.7913 14.4828 32.8016 14.4841C32.8119 14.4855 32.8219 14.4888 32.8309 14.494C32.8399 14.4992 32.8479 14.5061 32.8542 14.5144C32.8606 14.5226 32.8653 14.532 32.868 14.5421C32.8707 14.5521 32.8714 14.5626 32.8701 14.573C32.8687 14.5833 32.8654 14.5932 32.8602 14.6023C32.855 14.6113 32.8481 14.6192 32.8398 14.6256C32.8316 14.6319 32.8221 14.6366 32.8121 14.6393C29.7859 15.4568 28.1667 19.2687 28.1508 19.3072C28.138 19.3376 28.1086 19.356 28.0775 19.356ZM30.3757 19.9017C30.3628 19.9017 30.3501 19.8985 30.3387 19.8925C30.3273 19.8864 30.3176 19.8777 30.3103 19.867C30.303 19.8563 30.2985 19.844 30.2971 19.8312C30.2956 19.8184 30.2973 19.8054 30.3021 19.7934C30.3119 19.7683 30.549 19.1712 31.0309 18.5055C31.4781 17.8878 32.2274 17.0982 33.2582 16.8442C33.2683 16.8416 33.2789 16.841 33.2892 16.8426C33.2996 16.8441 33.3095 16.8476 33.3185 16.853C33.3275 16.8584 33.3353 16.8655 33.3415 16.8739C33.3478 16.8823 33.3522 16.8919 33.3547 16.9021C33.3573 16.9122 33.3577 16.9228 33.3561 16.9331C33.3545 16.9435 33.3509 16.9534 33.3454 16.9623C33.34 16.9713 33.3328 16.979 33.3243 16.9852C33.3159 16.9913 33.3063 16.9957 33.2961 16.9982C31.4075 17.4634 30.4591 19.8275 30.4497 19.8514C30.4439 19.8662 30.4337 19.879 30.4205 19.8879C30.4073 19.8969 30.3917 19.9017 30.3757 19.9017ZM27.4231 16.6714C27.411 16.6714 27.399 16.6686 27.3882 16.6633C27.3773 16.658 27.3678 16.6502 27.3604 16.6407C27.353 16.6311 27.3478 16.62 27.3454 16.6081C27.3429 16.5962 27.3432 16.584 27.3463 16.5723C27.3516 16.5515 27.9086 14.4922 30.0793 13.8268C30.0991 13.8217 30.1201 13.8244 30.1379 13.8344C30.1557 13.8444 30.169 13.8609 30.175 13.8804C30.181 13.8999 30.1792 13.921 30.1701 13.9393C30.1609 13.9575 30.1451 13.9715 30.1258 13.9784C28.0389 14.6181 27.5049 16.5921 27.4998 16.6119C27.4906 16.6478 27.4583 16.6714 27.4231 16.6714ZM27.4558 18.2298C27.4428 18.2298 27.4299 18.2266 27.4185 18.2204C27.407 18.2143 27.3972 18.2054 27.3899 18.1946C27.3827 18.1838 27.3782 18.1714 27.3769 18.1584C27.3756 18.1455 27.3775 18.1324 27.3825 18.1203C27.3969 18.0853 28.8544 14.6132 31.8076 13.8928C31.8281 13.8878 31.8497 13.8911 31.8676 13.9021C31.8856 13.913 31.8985 13.9306 31.9035 13.951C31.9084 13.9715 31.9051 13.9931 31.8942 14.011C31.8832 14.029 31.8656 14.0419 31.8452 14.0469C28.9711 14.7479 27.5433 18.1464 27.5292 18.1806C27.5166 18.2113 27.4869 18.2298 27.4558 18.2298ZM29.1099 19.8596C29.0974 19.8596 29.085 19.8566 29.0739 19.8509C29.0627 19.8452 29.0531 19.8369 29.0457 19.8268C29.0384 19.8167 29.0335 19.8049 29.0316 19.7926C29.0296 19.7802 29.0306 19.7675 29.0345 19.7556C29.0465 19.719 30.265 16.0935 33.3161 15.6119C33.3365 15.6094 33.357 15.615 33.3733 15.6274C33.3897 15.6398 33.4006 15.658 33.4038 15.6783C33.407 15.6985 33.4023 15.7192 33.3905 15.736C33.3788 15.7529 33.361 15.7645 33.3409 15.7685C30.3846 16.2352 29.197 19.7693 29.1853 19.805C29.1801 19.8209 29.17 19.8347 29.1564 19.8445C29.1429 19.8543 29.1266 19.8596 29.1099 19.8596ZM31.6433 19.8596C31.6306 19.8596 31.6182 19.8566 31.6069 19.8508C31.5956 19.845 31.5859 19.8366 31.5786 19.8263C31.5713 19.8159 31.5665 19.804 31.5648 19.7914C31.563 19.7789 31.5643 19.7661 31.5685 19.7542C31.5878 19.6987 32.0568 18.3907 33.2688 17.9503C33.2786 17.9467 33.289 17.9451 33.2994 17.9455C33.3099 17.9459 33.3201 17.9484 33.3295 17.9528C33.339 17.9573 33.3474 17.9635 33.3545 17.9712C33.3615 17.9789 33.3669 17.9879 33.3705 17.9977C33.374 18.0075 33.3756 18.0179 33.3752 18.0283C33.3747 18.0387 33.3722 18.0489 33.3678 18.0583C33.3634 18.0677 33.3572 18.0762 33.3495 18.0832C33.3418 18.0902 33.3328 18.0957 33.323 18.0992C32.181 18.5143 31.7227 19.7935 31.7181 19.8064C31.7127 19.822 31.7026 19.8355 31.6892 19.845C31.6758 19.8545 31.6598 19.8596 31.6433 19.8596Z" fill="#9F353A"/>
<path d="M30.1397 7.3841C30.1397 9.50354 28.4215 11.2217 26.3021 11.2217H22.7556C20.6361 11.2217 18.918 9.50354 18.918 7.3841V3.83761C18.918 1.71818 20.6361 0 22.7556 0H26.3021C28.4215 0 30.1397 1.71818 30.1397 3.83761V7.3841Z" fill="#F1EEE1"/>
<path d="M29.3203 7.12507C29.3203 8.93481 27.8531 10.4019 26.0434 10.4019H23.0151C21.2053 10.4019 19.7383 8.93481 19.7383 7.12507V4.09681C19.7383 2.28707 21.2054 0.819946 23.0151 0.819946H26.0434C27.8532 0.819946 29.3203 2.28707 29.3203 4.09681V7.12507Z" fill="white"/>
<path d="M26.0446 10.5554H23.0163C21.1247 10.5554 19.5859 9.01655 19.5859 7.12507V4.09681C19.5859 2.20525 21.1248 0.666443 23.0163 0.666443H26.0446C27.9361 0.666443 29.4749 2.20533 29.4749 4.09681V7.12507C29.4749 9.01663 27.936 10.5554 26.0446 10.5554ZM23.0163 0.973452C21.2941 0.973452 19.8929 2.37464 19.8929 4.09681V7.12507C19.8929 8.84723 21.2941 10.2484 23.0163 10.2484H26.0446C27.7668 10.2484 29.1679 8.84723 29.1679 7.12507V4.09681C29.1679 2.37464 27.7668 0.973452 26.0446 0.973452H23.0163Z" fill="#9F353A"/>
<path d="M27.4815 6.54405C27.4815 7.65941 26.5773 8.56355 25.462 8.56355H23.5957C22.4803 8.56355 21.5762 7.65941 21.5762 6.54405V4.67774C21.5762 3.56238 22.4803 2.65823 23.5957 2.65823H25.462C26.5773 2.65823 27.4815 3.56238 27.4815 4.67774V6.54405Z" fill="#9F353A"/>
<path d="M22.231 8.1115C22.218 8.11148 22.2051 8.10824 22.1936 8.10207C22.1821 8.0959 22.1723 8.08699 22.1651 8.07613C22.1579 8.06527 22.1534 8.0528 22.1522 8.03981C22.1509 8.02682 22.1529 8.01372 22.1579 8.00167C22.1741 7.96253 23.8223 4.07971 26.9243 3.24173C26.9443 3.23712 26.9653 3.24045 26.9829 3.25101C27.0005 3.26158 27.0133 3.27855 27.0187 3.29837C27.024 3.31819 27.0215 3.33931 27.0116 3.3573C27.0017 3.37529 26.9852 3.38875 26.9656 3.39485C23.9394 4.21234 22.3203 8.02424 22.3043 8.06269C22.2916 8.09308 22.2621 8.1115 22.231 8.1115ZM24.5293 8.65721C24.5164 8.6572 24.5037 8.65403 24.4923 8.64798C24.4809 8.64194 24.4711 8.6332 24.4638 8.62253C24.4566 8.61185 24.452 8.59957 24.4506 8.58674C24.4492 8.57391 24.4509 8.56093 24.4556 8.54892C24.4654 8.52382 24.7025 7.92676 25.1844 7.26101C25.6316 6.64331 26.3809 5.85368 27.4117 5.59971C27.4218 5.59722 27.4323 5.59675 27.4426 5.59831C27.4529 5.59988 27.4628 5.60346 27.4717 5.60885C27.4806 5.61424 27.4884 5.62133 27.4945 5.62972C27.5007 5.63811 27.5052 5.64763 27.5077 5.65774C27.5101 5.66784 27.5106 5.67835 27.5091 5.68864C27.5075 5.69893 27.5039 5.70881 27.4985 5.71772C27.4931 5.72663 27.486 5.73439 27.4777 5.74056C27.4693 5.74673 27.4597 5.75119 27.4496 5.75368C25.5611 6.21895 24.6126 8.58307 24.6033 8.60694C24.5974 8.62176 24.5872 8.63448 24.574 8.64344C24.5608 8.6524 24.5452 8.6572 24.5293 8.65721ZM21.5766 5.42694C21.5645 5.42694 21.5526 5.42416 21.5417 5.41883C21.5308 5.4135 21.5213 5.40575 21.5139 5.39618C21.5065 5.38661 21.5014 5.37547 21.4989 5.36362C21.4965 5.35176 21.4968 5.3395 21.4998 5.32778C21.5052 5.30698 22.0622 3.24771 24.2329 2.58235C24.2526 2.57725 24.2736 2.57997 24.2915 2.58995C24.3093 2.59992 24.3226 2.61639 24.3286 2.63592C24.3346 2.65544 24.3328 2.67653 24.3236 2.69479C24.3145 2.71304 24.2986 2.72707 24.2794 2.73393C22.1924 3.37366 21.6584 5.34766 21.6533 5.36746C21.6441 5.4033 21.6119 5.42694 21.5766 5.42694ZM21.6093 6.98532C21.5963 6.98531 21.5835 6.9821 21.572 6.97597C21.5605 6.96984 21.5507 6.96097 21.5435 6.95015C21.5362 6.93933 21.5318 6.9269 21.5305 6.91394C21.5292 6.90099 21.5311 6.88791 21.536 6.87587C21.5505 6.84087 23.0079 3.36875 25.9612 2.64828C25.9816 2.6433 26.0032 2.64665 26.0212 2.65758C26.0391 2.66851 26.052 2.68614 26.057 2.70657C26.062 2.72701 26.0586 2.74859 26.0477 2.76656C26.0368 2.78453 26.0191 2.79742 25.9987 2.8024C23.1246 3.50345 21.6968 6.90189 21.6827 6.93612C21.6701 6.96682 21.6405 6.98532 21.6093 6.98532ZM23.2634 8.61515C23.2509 8.61513 23.2386 8.61214 23.2274 8.60643C23.2163 8.60073 23.2066 8.59247 23.1993 8.58233C23.1919 8.57219 23.1871 8.56046 23.1851 8.54809C23.1832 8.53572 23.1842 8.52306 23.188 8.51115C23.2 8.47454 24.4185 4.84907 27.4697 4.36738C27.49 4.36497 27.5105 4.37054 27.5269 4.38292C27.5432 4.3953 27.5542 4.41353 27.5574 4.43378C27.5606 4.45404 27.5558 4.47475 27.5441 4.49157C27.5324 4.5084 27.5146 4.52003 27.4945 4.52403C24.5381 4.99076 23.3505 8.52481 23.3389 8.5605C23.3336 8.57639 23.3235 8.59022 23.31 8.60003C23.2964 8.60985 23.2801 8.61514 23.2634 8.61515ZM25.7969 8.61515C25.7842 8.61517 25.7717 8.61215 25.7604 8.60634C25.7492 8.60053 25.7395 8.59211 25.7322 8.58178C25.7248 8.57145 25.7201 8.55952 25.7183 8.54697C25.7165 8.53443 25.7178 8.52165 25.722 8.50969C25.7414 8.4542 26.2103 7.14627 27.4224 6.70579C27.4322 6.7022 27.4426 6.70057 27.453 6.70102C27.4634 6.70146 27.4736 6.70396 27.4831 6.70836C27.4925 6.71277 27.501 6.71901 27.508 6.7267C27.515 6.7344 27.5205 6.74341 27.524 6.75322C27.5276 6.763 27.5292 6.77339 27.5287 6.78379C27.5282 6.79419 27.5257 6.80439 27.5213 6.81382C27.5169 6.82325 27.5107 6.83172 27.503 6.83875C27.4953 6.84577 27.4864 6.85121 27.4766 6.85476C26.3346 7.26984 25.8762 8.54907 25.8717 8.56196C25.8663 8.5775 25.8562 8.59097 25.8428 8.60051C25.8294 8.61004 25.8133 8.61516 25.7969 8.61515ZM24.4112 18.5573C24.4112 20.6767 22.693 22.3949 20.5736 22.3949H17.0271C14.9076 22.3949 13.1895 20.6767 13.1895 18.5573V15.0108C13.1895 12.8913 14.9076 11.1732 17.0271 11.1732H20.5736C22.693 11.1732 24.4112 12.8913 24.4112 15.0108V18.5573Z" fill="#F1EEE1"/>
<path d="M23.5917 18.2982C23.5917 20.1079 22.1246 21.5751 20.3149 21.5751H17.2866C15.4768 21.5751 14.0098 20.1079 14.0098 18.2982V15.2699C14.0098 13.4602 15.4769 11.9931 17.2866 11.9931H20.3149C22.1247 11.9931 23.5917 13.4602 23.5917 15.2699V18.2982Z" fill="white"/>
<path d="M20.3141 21.7286H17.2858C15.3943 21.7286 13.8555 20.1898 13.8555 18.2983V15.27C13.8555 13.3785 15.3944 11.8397 17.2858 11.8397H20.3141C22.2057 11.8397 23.7445 13.3785 23.7445 15.27V18.2983C23.7445 20.1898 22.2057 21.7286 20.3141 21.7286ZM17.2858 12.1466C15.5636 12.1466 14.1625 13.5478 14.1625 15.2699V18.2982C14.1625 20.0204 15.5636 21.4216 17.2858 21.4216H20.3141C22.0363 21.4216 23.4374 20.0204 23.4374 18.2982V15.2699C23.4374 13.5478 22.0363 12.1466 20.3141 12.1466H17.2858Z" fill="#AA0909"/>
<path d="M21.848 17.7409C21.848 18.9007 20.9314 19.8408 19.8007 19.8408H17.9087C16.7779 19.8408 15.8613 18.9007 15.8613 17.7409V15.8004C15.8613 14.6407 16.7779 13.7006 17.9087 13.7006H19.8007C20.9314 13.7006 21.848 14.6407 21.848 15.8004V17.7409Z" fill="#9F353A"/>
<path d="M16.5014 19.2846C16.4883 19.2846 16.4755 19.2814 16.464 19.2752C16.4525 19.269 16.4427 19.2601 16.4355 19.2493C16.4282 19.2384 16.4238 19.2259 16.4225 19.2129C16.4213 19.1999 16.4232 19.1868 16.4282 19.1748C16.4445 19.1357 18.0927 15.2528 21.1946 14.4149C21.2047 14.4121 21.2152 14.4114 21.2255 14.4128C21.2358 14.4141 21.2458 14.4175 21.2548 14.4227C21.2639 14.4278 21.2718 14.4348 21.2781 14.443C21.2845 14.4513 21.2892 14.4607 21.2919 14.4707C21.2946 14.4808 21.2953 14.4913 21.294 14.5016C21.2926 14.5119 21.2893 14.5219 21.2841 14.5309C21.2789 14.54 21.272 14.5479 21.2637 14.5542C21.2555 14.5606 21.2461 14.5653 21.236 14.568C18.2098 15.3855 16.5906 19.1974 16.5747 19.2358C16.5619 19.2663 16.5325 19.2846 16.5014 19.2846ZM18.7996 19.8303C18.7867 19.8303 18.774 19.8272 18.7626 19.8211C18.7511 19.8151 18.7414 19.8063 18.7341 19.7957C18.7269 19.785 18.7223 19.7727 18.7209 19.7599C18.7195 19.747 18.7212 19.7341 18.7259 19.722C18.7357 19.6969 18.9728 19.0999 19.4547 18.4341C19.9019 17.8164 20.6512 17.0268 21.682 16.7728C21.6921 16.7703 21.7027 16.7697 21.7131 16.7712C21.7234 16.7727 21.7334 16.7763 21.7423 16.7817C21.7513 16.787 21.7591 16.7941 21.7654 16.8026C21.7716 16.811 21.7761 16.8205 21.7786 16.8307C21.7811 16.8409 21.7815 16.8514 21.7799 16.8618C21.7784 16.8721 21.7747 16.882 21.7693 16.891C21.7638 16.8999 21.7566 16.9077 21.7482 16.9138C21.7397 16.92 21.7301 16.9244 21.7199 16.9268C19.8314 17.3921 18.8829 19.7562 18.8736 19.7801C18.8677 19.7949 18.8575 19.8076 18.8443 19.8166C18.8311 19.8255 18.8155 19.8303 18.7996 19.8303ZM15.8469 16.6001C15.8348 16.6001 15.8229 16.5973 15.812 16.592C15.8011 16.5866 15.7916 16.5789 15.7842 16.5693C15.7768 16.5597 15.7717 16.5486 15.7692 16.5367C15.7668 16.5249 15.7671 16.5126 15.7701 16.5009C15.7755 16.4801 16.3325 14.4208 18.5032 13.7555C18.5229 13.7504 18.5439 13.7531 18.5617 13.7631C18.5796 13.773 18.5929 13.7895 18.5989 13.809C18.6048 13.8286 18.6031 13.8497 18.5939 13.8679C18.5848 13.8862 18.5689 13.9002 18.5497 13.9071C16.4627 14.5468 15.9287 16.5208 15.9236 16.5406C15.9144 16.5764 15.8822 16.6001 15.8469 16.6001ZM15.8796 18.1584C15.8666 18.1584 15.8538 18.1552 15.8423 18.1491C15.8308 18.143 15.821 18.1341 15.8138 18.1233C15.8065 18.1125 15.802 18.1 15.8007 18.0871C15.7995 18.0741 15.8014 18.061 15.8063 18.049C15.8207 18.014 17.2782 14.5419 20.2315 13.8214C20.2519 13.8164 20.2735 13.8198 20.2915 13.8307C20.3094 13.8416 20.3223 13.8593 20.3273 13.8797C20.3323 13.9001 20.3289 13.9217 20.318 13.9397C20.3071 13.9577 20.2894 13.9705 20.269 13.9755C17.3949 14.6766 15.9671 18.075 15.953 18.1092C15.9404 18.1399 15.9108 18.1584 15.8796 18.1584ZM17.5337 19.7883C17.5212 19.7883 17.5088 19.7853 17.4977 19.7796C17.4865 19.7739 17.4769 19.7656 17.4696 19.7555C17.4622 19.7453 17.4574 19.7336 17.4554 19.7212C17.4535 19.7088 17.4545 19.6962 17.4583 19.6843C17.4703 19.6477 18.6888 16.0222 21.74 15.5405C21.7603 15.5381 21.7808 15.5437 21.7972 15.556C21.8135 15.5684 21.8244 15.5867 21.8277 15.6069C21.8309 15.6272 21.8261 15.6479 21.8144 15.6647C21.8026 15.6815 21.7849 15.6932 21.7647 15.6972C18.8084 16.1639 17.6208 19.6979 17.6091 19.7336C17.6039 19.7495 17.5938 19.7634 17.5803 19.7732C17.5667 19.783 17.5504 19.7883 17.5337 19.7883ZM20.0671 19.7883C20.0545 19.7883 20.042 19.7853 20.0307 19.7795C20.0195 19.7737 20.0098 19.7652 20.0024 19.7549C19.9951 19.7446 19.9904 19.7326 19.9886 19.7201C19.9868 19.7076 19.9881 19.6948 19.9923 19.6828C20.0116 19.6273 20.4806 18.3194 21.6927 17.8789C21.7025 17.8753 21.7129 17.8737 21.7233 17.8741C21.7337 17.8746 21.7439 17.8771 21.7534 17.8815C21.7628 17.8859 21.7713 17.8921 21.7783 17.8998C21.7853 17.9075 21.7908 17.9165 21.7943 17.9263C21.7979 17.9361 21.7994 17.9465 21.799 17.9569C21.7985 17.9673 21.796 17.9775 21.7916 17.9869C21.7872 17.9964 21.781 18.0048 21.7733 18.0119C21.7656 18.0189 21.7566 18.0243 21.7469 18.0279C20.6049 18.443 20.1465 19.7222 20.142 19.7351C20.1366 19.7506 20.1265 19.7641 20.1131 19.7736C20.0996 19.7832 20.0836 19.7883 20.0671 19.7883Z" fill="#F1EEE1"/>
<path d="M18.8284 19.8408H17.7697C16.5043 19.8408 15.4785 18.9007 15.4785 17.7409V15.8004C15.4785 14.6407 16.5043 13.7006 17.7697 13.7006H18.8556" fill="#F1EEE1"/>
<path d="M16.6985 19.458C16.6868 19.458 16.6753 19.4554 16.6648 19.4504C16.6543 19.4455 16.6449 19.4383 16.6375 19.4293C16.6301 19.4204 16.6247 19.4099 16.6217 19.3986C16.6188 19.3873 16.6184 19.3756 16.6205 19.3641C16.9961 17.3488 16.6236 14.2447 16.6197 14.2135C16.6185 14.2032 16.6193 14.1927 16.622 14.1827C16.6248 14.1726 16.6296 14.1632 16.636 14.155C16.6424 14.1468 16.6504 14.14 16.6594 14.1349C16.6685 14.1297 16.6785 14.1265 16.6888 14.1252C16.6992 14.1239 16.7097 14.1247 16.7197 14.1275C16.7297 14.1303 16.7391 14.1351 16.7473 14.1415C16.7555 14.1479 16.7624 14.1559 16.7675 14.1649C16.7726 14.174 16.7759 14.184 16.7771 14.1943C16.781 14.2256 17.1565 17.3541 16.7764 19.3932C16.773 19.4114 16.7633 19.4278 16.7491 19.4396C16.7349 19.4515 16.717 19.458 16.6985 19.458ZM17.7037 19.7935C17.6922 19.7935 17.6808 19.791 17.6704 19.7861C17.6599 19.7813 17.6506 19.7742 17.6432 19.7655C17.6357 19.7567 17.6303 19.7464 17.6272 19.7353C17.6241 19.7242 17.6235 19.7126 17.6253 19.7012C18.0014 17.4221 17.6286 13.912 17.6248 13.8769C17.6235 13.8565 17.6301 13.8363 17.6432 13.8207C17.6564 13.805 17.6751 13.795 17.6954 13.7928C17.7158 13.7906 17.7362 13.7963 17.7524 13.8088C17.7686 13.8213 17.7794 13.8395 17.7824 13.8598C17.7863 13.8951 18.1614 17.4264 17.7819 19.7269C17.7788 19.7455 17.7693 19.7623 17.755 19.7745C17.7407 19.7867 17.7225 19.7934 17.7037 19.7935ZM18.6299 19.7935C18.6184 19.7935 18.607 19.791 18.5965 19.7861C18.5861 19.7813 18.5768 19.7742 18.5694 19.7655C18.5619 19.7567 18.5564 19.7464 18.5534 19.7353C18.5503 19.7242 18.5496 19.7126 18.5515 19.7012C18.9276 17.4221 18.5547 13.912 18.551 13.8769C18.5496 13.8565 18.5562 13.8363 18.5694 13.8207C18.5826 13.805 18.6013 13.795 18.6216 13.7928C18.6419 13.7906 18.6623 13.7963 18.6785 13.8088C18.6948 13.8213 18.7055 13.8395 18.7086 13.8598C18.7124 13.8951 19.0876 17.4264 18.7081 19.7269C18.705 19.7455 18.6955 19.7623 18.6811 19.7745C18.6668 19.7867 18.6487 19.7934 18.6299 19.7935Z" fill="#9F353A"/>
</svg>
