<svg width="42" height="40" viewBox="0 0 42 40" fill="none" xmlns="http://www.w3.org/2000/svg">
<path d="M17.7776 3.22198V13.2476C17.7776 13.692 17.5487 14.105 17.1719 14.3405L1.19948 24.3231C0.822661 24.5588 0.59375 24.9718 0.59375 25.416V27.3471C0.59375 28.1856 1.3817 28.8008 2.19512 28.5974L16.1763 25.1022C16.9897 24.8988 17.7776 25.514 17.7776 26.3525V32.7089C17.7776 33.0807 17.6172 33.4342 17.3375 33.6789L12.6972 37.739C11.7128 38.6006 12.4895 40.2111 13.7764 39.977L20.7691 38.7056C20.9214 38.6779 21.0778 38.6779 21.2301 38.7056L28.2228 39.977C29.5097 40.2111 30.2864 38.6006 29.302 37.739L24.6617 33.6789C24.382 33.4342 24.2216 33.0807 24.2216 32.7089V26.3525C24.2216 25.514 25.0095 24.8988 25.8229 25.1022L39.8041 28.5974C40.6176 28.8008 41.4055 28.1856 41.4055 27.3471V25.416C41.4055 24.9718 41.1765 24.5588 40.7997 24.3231L24.8273 14.3405C24.4506 14.105 24.2216 13.692 24.2216 13.2476V3.22198C24.2216 1.44252 22.779 0 20.9996 0C19.2202 0 17.7776 1.44252 17.7776 3.22198Z" fill="#9F353A"/>
</svg>
