<svg width="19" height="18" viewBox="0 0 19 18" fill="none" xmlns="http://www.w3.org/2000/svg">
<path d="M7.73274 1.44989V5.96141C7.73274 6.16138 7.62971 6.34724 7.46017 6.45322L0.272579 10.9454C0.10301 11.0514 0 11.2373 0 11.4372V12.3062C0 12.6835 0.354575 12.9604 0.720615 12.8688L7.01213 11.296C7.3782 11.2045 7.73274 11.4813 7.73274 11.8586V14.719C7.73274 14.8863 7.66054 15.0454 7.53469 15.1555L5.44657 16.9826C5.00357 17.3703 5.35307 18.095 5.93221 17.9897L9.07892 17.4175C9.14745 17.4051 9.21782 17.4051 9.28635 17.4175L12.4331 17.9897C13.0122 18.095 13.3617 17.3703 12.9187 16.9826L10.8306 15.1555C10.7047 15.0454 10.6325 14.8863 10.6325 14.719V11.8586C10.6325 11.4813 10.9871 11.2045 11.3531 11.296L17.6447 12.8688C18.0107 12.9604 18.3653 12.6835 18.3653 12.3062V11.4372C18.3653 11.2373 18.2622 11.0514 18.0927 10.9454L10.9051 6.45322C10.7356 6.34724 10.6325 6.16138 10.6325 5.96141V1.44989C10.6325 0.649135 9.98336 0 9.18263 0C8.38191 0 7.73274 0.649135 7.73274 1.44989Z" fill="#403D3D" fill-opacity="0.5"/>
</svg>
