<svg width="360" height="103" viewBox="0 0 360 103" fill="none" xmlns="http://www.w3.org/2000/svg">
<path d="M287.865 44.3472C287.865 40.1335 283.036 36.7176 277.079 36.7176H115.955C101.807 36.7176 90.3371 28.4981 90.3371 18.3588C90.3371 8.21951 101.807 0 115.955 0H360V103H164.494C158.165 103 153.034 99.3706 153.034 94.8935C153.034 90.4164 158.165 86.787 164.494 86.787H227.865C236.801 86.787 244.045 83.0509 244.045 78.4421C244.045 73.8334 236.801 70.0972 227.865 70.0972H12.809C5.73478 70.0972 0 66.0408 0 61.037C0 56.1082 5.56428 52.0986 12.492 51.9796C14.2046 52.1665 82.0732 52.056 115.955 51.9769H277.079C283.036 51.9769 287.865 48.561 287.865 44.3472Z" fill="url(#paint0_linear_865_2590)" fill-opacity="0.5"/>
<defs>
<linearGradient id="paint0_linear_865_2590" x1="0" y1="51.5" x2="360" y2="51.5" gradientUnits="userSpaceOnUse">
<stop stop-color="#F1EEE1" stop-opacity="0.9"/>
<stop offset="1" stop-color="#F1EEE1" stop-opacity="0.4"/>
</linearGradient>
</defs>
</svg>
