<svg width="603" height="173" viewBox="0 0 603 173" fill="none" xmlns="http://www.w3.org/2000/svg">
<path d="M120.826 74.4861C120.826 67.4087 128.915 61.6713 138.893 61.6713H408.775C432.474 61.6713 451.685 47.8657 451.685 30.8357C451.685 13.8056 432.474 0 408.775 0H0V173H327.472C338.074 173 346.669 166.904 346.669 159.384C346.669 151.865 338.074 145.769 327.472 145.769H221.326C206.358 145.769 194.225 139.493 194.225 131.752C194.225 124.011 206.358 117.736 221.326 117.736H581.545C593.394 117.736 603 110.923 603 102.519C603 94.24 593.68 87.5054 582.076 87.3055C579.207 87.6195 465.527 87.4338 408.775 87.3009H138.893C128.915 87.3009 120.826 81.5635 120.826 74.4861Z" fill="url(#paint0_linear_865_2591)" fill-opacity="0.5"/>
<defs>
<linearGradient id="paint0_linear_865_2591" x1="603" y1="86.5" x2="0" y2="86.5" gradientUnits="userSpaceOnUse">
<stop stop-color="#F1EEE1" stop-opacity="0.9"/>
<stop offset="1" stop-color="#F1EEE1" stop-opacity="0.4"/>
</linearGradient>
</defs>
</svg>
