<svg width="19" height="24" viewBox="0 0 19 24" fill="none" xmlns="http://www.w3.org/2000/svg">
<path fill-rule="evenodd" clip-rule="evenodd" d="M19 9.90909C19 17.2273 9.5 23.5 9.5 23.5C9.5 23.5 0 17.2273 0 9.90909C0 7.41364 1.00089 5.02041 2.78249 3.25586C4.56408 1.49131 6.98044 0.5 9.5 0.5C12.0196 0.5 14.4359 1.49131 16.2175 3.25586C17.9991 5.02041 19 7.41364 19 9.90909Z" fill="#403D3D" fill-opacity="0.5"/>
<path d="M9.52704 13.0979C11.2905 13.0979 12.7201 11.6821 12.7201 9.93545C12.7201 8.18885 11.2905 6.77295 9.52704 6.77295C7.76356 6.77295 6.33398 8.18885 6.33398 9.93545C6.33398 11.6821 7.76356 13.0979 9.52704 13.0979Z" fill="#F1EEE1"/>
</svg>
