<svg width="28" height="30" viewBox="0 0 28 30" fill="none" xmlns="http://www.w3.org/2000/svg">
<path d="M21.6666 17.5C21.6666 19.3408 19.1666 30 14.1667 30H7.49999C2.5 30 0 19.3408 0 17.5V3.33336C0 2.44931 0.351189 1.60146 0.976309 0.976341C1.60143 0.351221 2.44928 3.05176e-05 3.33333 3.05176e-05H18.3333C19.2174 3.05176e-05 20.0652 0.351221 20.6903 0.976341C21.3155 1.60146 21.6666 2.44931 21.6666 3.33336V17.5Z" fill="#9F353A"/>
<path d="M10.3669 7.64256C12.1485 9.59506 12.6294 12.2334 11.4419 13.5351C10.256 14.8367 7.84855 14.3092 6.06772 12.3567C4.28772 10.4042 3.80522 7.76506 4.99355 6.46423C6.18022 5.16257 8.58771 5.69007 10.3669 7.64256Z" fill="#F5F8FA"/>
<path d="M11.6113 10.5884C12.1188 11.2392 12.1188 12.295 11.6113 12.9459C11.1063 13.5967 10.2838 13.5967 9.77711 12.9459C9.26961 12.295 9.26961 11.2392 9.77711 10.5884C10.2838 9.93754 11.1063 9.93754 11.6113 10.5884Z" fill="#9F353A"/>
<path d="M16.4388 7.72585C14.9171 9.67751 14.5071 12.3167 15.5221 13.6183C16.5346 14.92 18.5888 14.3925 20.1088 12.44C21.6296 10.4875 22.0396 7.84835 21.0255 6.54752C20.013 5.24585 17.9588 5.77335 16.4388 7.72585Z" fill="white"/>
<path d="M15.3293 8.33343C15.0172 8.3333 14.7115 8.24557 14.4468 8.08023C14.1822 7.91489 13.9693 7.67857 13.8324 7.39818C13.6954 7.11778 13.64 6.80458 13.6723 6.49421C13.7046 6.18385 13.8234 5.88878 14.0151 5.6426L17.9068 0.642608C18.0413 0.46992 18.2085 0.325414 18.3988 0.21734C18.5891 0.109266 18.7989 0.0397415 19.0161 0.0127354C19.2333 -0.0142708 19.4537 0.00177002 19.6647 0.0599422C19.8758 0.118114 20.0732 0.21728 20.2459 0.351776C20.4186 0.486271 20.5631 0.653462 20.6712 0.843804C20.7793 1.03415 20.8488 1.24391 20.8758 1.46112C20.9028 1.67834 20.8868 1.89874 20.8286 2.10975C20.7704 2.32076 20.6713 2.51825 20.5368 2.69094L16.6451 7.69093C16.4893 7.89132 16.2898 8.05341 16.0617 8.16477C15.8336 8.27614 15.5831 8.33383 15.3293 8.33343ZM11.4368 8.33343C10.9401 8.33343 10.4493 8.1126 10.1201 7.69093L6.22678 2.69094C5.95516 2.34218 5.8332 1.8998 5.88774 1.46112C5.94228 1.02245 6.16886 0.623401 6.51762 0.351776C6.86637 0.0801497 7.30875 -0.0418062 7.74743 0.0127354C8.18611 0.067277 8.58515 0.293848 8.85678 0.642608L12.7509 5.6426C12.9424 5.88887 13.0609 6.18389 13.093 6.49414C13.1251 6.80439 13.0696 7.11744 12.9327 7.39771C12.7958 7.67798 12.5831 7.91424 12.3187 8.07965C12.0542 8.24506 11.7487 8.33298 11.4368 8.33343Z" fill="#F1EEE1"/>
<path d="M17.2905 26.0425C16.6155 26.0425 15.9814 25.6291 15.7297 24.96C15.643 24.7441 14.7572 22.7083 12.2906 22.7083C9.82389 22.7083 8.93806 24.7441 8.84472 24.9766C8.68136 25.3848 8.36422 25.7125 7.96162 25.8891C7.55901 26.0657 7.10316 26.0771 6.69223 25.9208C6.28315 25.7644 5.95246 25.4527 5.77218 25.0536C5.59189 24.6545 5.57664 24.2003 5.72973 23.79C5.79723 23.6092 7.44139 19.375 12.2906 19.375C17.1397 19.375 18.7839 23.6092 18.8514 23.79C18.9459 24.0422 18.9779 24.3135 18.9446 24.5808C18.9114 24.8481 18.8139 25.1033 18.6605 25.3247C18.5071 25.5461 18.3023 25.727 18.0638 25.852C17.8252 25.977 17.5599 26.0424 17.2905 26.0425Z" fill="#F1EEE1"/>
<path d="M13.0619 18.2725C13.0619 18.2725 16.6093 17.7749 18.6418 21.8722C20.873 26.3718 20.873 17.3726 20.315 16.4727C19.7578 15.5728 19.1665 17.72 18.083 17.2826C15.8502 16.3827 13.0619 18.2725 13.0619 18.2725ZM13.0619 18.2725C13.0619 18.2725 8.40162 17.7749 5.73038 21.8722C2.79953 26.3718 2.79953 17.3726 3.53164 16.4727C4.26535 15.5728 5.04179 18.0251 6.46487 17.5877C9.3973 16.6878 13.0619 18.2725 13.0619 18.2725Z" fill="white"/>
<path d="M17.8632 10.5695C18.3707 11.2204 18.3707 12.2762 17.8632 12.927C17.3582 13.5779 16.5357 13.5779 16.0291 12.927C15.5216 12.2762 15.5216 11.2204 16.0291 10.5695C16.5357 9.91871 17.3582 9.91871 17.8632 10.5695Z" fill="#9F353A"/>
<path d="M25.2186 12.5C25.1436 12.5 25.0736 12.5167 25.0002 12.5242V12.5H13.4628C12.2036 12.5 11.1836 13.6192 11.1836 15C11.1836 16.3808 12.2036 17.5 13.4628 17.5H25.0002V17.4758C25.0736 17.4833 25.1436 17.5 25.2186 17.5C26.4794 17.5 27.5002 16.3808 27.5002 15C27.5002 13.62 26.4794 12.5 25.2186 12.5Z" fill="#F1EEE1"/>
</svg>
